<svg xmlns="http://www.w3.org/2000/svg" viewBox="0 0 243.39 258.05"><defs><style>.cls-1{fill:#fff;stroke:#fff;stroke-miterlimit:10;stroke-width:7px;}</style></defs><g id="Ebene_2" data-name="Ebene 2"><g id="Ebene_1-2" data-name="Ebene 1"><path class="cls-1" d="M8531.65-4035.75V-4207.1c5.91-5.08,12.81-6,20.34-5.43,5.92.45,11.91.09,17.87.09h26.38c2-12.49-1.76-24.73,3.52-36.63,3.6-8.13,7.9-15.4,14.72-20.67,6.37-4.93,13.19-9.19,21.64-10.81,12.41-2.39,24.48-2.09,36.19,2.28,7.88,2.94,13.82,9,20.26,14.34,5.59,4.66,6.85,11.12,9.84,16.64,2.59,4.77,2,11.38,2.36,17.21s.07,11.44.07,17.64h5.41c16.07,0,32.14,0,48.22,0a9.64,9.64,0,0,1,9.5,9.42q0,82.11.07,164.22c0,5.21-2.59,7.22-7.21,7.58-2,.16-4,.11-6,.11q-103.2,0-206.42,0C8542.44-4031.1,8536.06-4029.89,8531.65-4035.75Zm218.55-11.05v-147.14H8552.34v147.14Zm-65.53-165.87c0-9.24.09-17.89,0-26.54-.14-9.95-7.11-15.69-14-21.05-8.27-6.45-18.31-5-27.78-4.31-10.68.8-18.85,6.23-23.53,16.14a25.49,25.49,0,0,0-2.47,7.81c-1,9.28-1.66,18.6-2.46,27.95Z" transform="translate(-8528.15 4285.54)"/></g></g></svg>