<svg xmlns="http://www.w3.org/2000/svg" viewBox="0 0 467.9 227.65"><defs><style>.cls-1{fill:#1e1e1c;}.cls-2{fill:#fff;}</style></defs><g id="Ebene_2" data-name="Ebene 2"><g id="Ebene_1-2" data-name="Ebene 1"><path class="cls-1" d="M467.9,106.28v14.83a2.08,2.08,0,0,0-.27,1.31,59.56,59.56,0,0,1-1.18,10.64,111.31,111.31,0,0,1-13.07,36.7,113.21,113.21,0,0,1-24.52,29.91,115.61,115.61,0,0,1-21.66,14.84A112.84,112.84,0,0,1,382.39,224a114.44,114.44,0,0,1-21.93,3.35,2.08,2.08,0,0,0-1.31.28H108.94a18.54,18.54,0,0,0-4.63-.53,113.1,113.1,0,0,1-45.16-13.57,115.88,115.88,0,0,1-25.42-18.9c-2.7-2.65-5.2-5.49-7.63-8.39a113.06,113.06,0,0,1-21-38.56A106,106,0,0,1,.28,122.23a125.42,125.42,0,0,1,.16-18.89A110.11,110.11,0,0,1,2.78,88.43,114.3,114.3,0,0,1,13.63,59.65,113.88,113.88,0,0,1,52.45,17.87,114.43,114.43,0,0,1,77.64,5.8,112.92,112.92,0,0,1,113.47,0q120.1,0,240.2,0A119.3,119.3,0,0,1,373.1,1.51a110.35,110.35,0,0,1,28.42,8.67,114.22,114.22,0,0,1,42.38,33.4,113.83,113.83,0,0,1,20.6,41.59,88.06,88.06,0,0,1,3.13,20A1.93,1.93,0,0,0,467.9,106.28Zm-354-75.71a83.08,83.08,0,0,0-83.35,81.55c-.41,23.38,7.74,43.68,24.27,60.29,16,16.12,35.72,24.43,58.41,24.55a83.26,83.26,0,0,0,83.91-82.13C197.75,68.14,159.57,30.23,113.92,30.57Zm174.61,81.88a65.5,65.5,0,0,0,2.07,16.89,66.74,66.74,0,0,0,20,33,66,66,0,0,0,52,16.65,67.75,67.75,0,0,0,19.07-5.07,69.17,69.17,0,0,0,12.86-7.3,63.21,63.21,0,0,0,10.33-9.27A67.37,67.37,0,0,0,420.13,128a4,4,0,0,0-4.08-5.07,5.29,5.29,0,0,0-3.44,1.37,51.48,51.48,0,0,1-9.63,6.23,47.85,47.85,0,0,1-9.32,3.51,55,55,0,0,1-10.31,1.48,46.17,46.17,0,0,1-12.32-1A48.83,48.83,0,0,1,351.84,126a46.2,46.2,0,0,1-6.17-5.33,51.64,51.64,0,0,1-7.34-9.76,49.66,49.66,0,0,1-5.75-15.33,46.93,46.93,0,0,1-.81-12A49,49,0,0,1,339,60.12c.94-1.5,2-2.89,3.07-4.3a5.2,5.2,0,0,0,1.28-2.69,4.43,4.43,0,0,0-5.82-4.6c-1.84.51-3.67,1.11-5.45,1.78A68.19,68.19,0,0,0,312,62.14a66,66,0,0,0-23.45,50.31Z"/><path class="cls-2" d="M113.92,30.57c45.65-.34,83.83,37.57,83.24,84.26A83.26,83.26,0,0,1,113.25,197c-22.69-.12-42.37-8.43-58.41-24.55C38.31,155.8,30.16,135.5,30.57,112.12A83.08,83.08,0,0,1,113.92,30.57Z"/><path class="cls-2" d="M288.53,112.45A66,66,0,0,1,312,62.14a68.19,68.19,0,0,1,20.11-11.83c1.78-.67,3.61-1.27,5.45-1.78a4.43,4.43,0,0,1,5.82,4.6,5.2,5.2,0,0,1-1.28,2.69c-1.06,1.41-2.13,2.8-3.07,4.3a49,49,0,0,0-7.24,23.43,46.93,46.93,0,0,0,.81,12,49.66,49.66,0,0,0,5.75,15.33,51.64,51.64,0,0,0,7.34,9.76,46.2,46.2,0,0,0,6.17,5.33A48.83,48.83,0,0,0,371,134.55a46.17,46.17,0,0,0,12.32,1A55,55,0,0,0,393.66,134a47.85,47.85,0,0,0,9.32-3.51,51.48,51.48,0,0,0,9.63-6.23,5.29,5.29,0,0,1,3.44-1.37,4,4,0,0,1,4.08,5.07,67.37,67.37,0,0,1-15.29,29.32,63.21,63.21,0,0,1-10.33,9.27,69.17,69.17,0,0,1-12.86,7.3A67.75,67.75,0,0,1,362.58,179a66,66,0,0,1-52-16.65,66.74,66.74,0,0,1-20-33A65.5,65.5,0,0,1,288.53,112.45Z"/></g></g></svg>