<svg xmlns="http://www.w3.org/2000/svg" viewBox="0 0 389.79 408.48"><defs><style>.cls-1{fill:none;stroke:#000;stroke-miterlimit:10;stroke-width:13px;}</style></defs><g id="Ebene_2" data-name="Ebene 2"><g id="Ebene_1-2" data-name="Ebene 1"><path d="M384.12,195.47Q364,175.27,343.84,155.18a20.1,20.1,0,0,0-2.9-2.18,42.7,42.7,0,0,1-8.67-7.17c-2.58-1.41-5.22-2.73-7.77-4.19-20.56-6.67-41-13.56-61.53-20.41-.23-.08-.41-.31-1-.75,8.22-14.16,11.7-29.64,11.09-46.63l.38.12a5.72,5.72,0,0,1,.18-2,5.62,5.62,0,0,1,.06-1.42c-.16-1.6-.35-3.19-.65-4.78-.6-3.19-1.89-6-2.28-9.21a4.65,4.65,0,0,1-.61-1.22,9.77,9.77,0,0,1-2.25-3.54Q250.31,8,203.5.73A13.72,13.72,0,0,1,201.31,0h-16a12.75,12.75,0,0,1-2.19.72Q140.05,7.22,121,46.35a8.57,8.57,0,0,1-3.61,4.06,17.68,17.68,0,0,1-2.26,6.46c-.08.56-.17,1.12-.24,1.69a95.74,95.74,0,0,0-.43,10.84,4.81,4.81,0,0,1-1,3c.29,7,.33,14,1.48,20.75,1.33,7.88,4.23,15.5,6.53,23.55L84.66,129c-12.6,4.19-25.19,8.44-37.84,12.46a5.81,5.81,0,0,1-2.13.19,18.49,18.49,0,0,1-6.58,2.84,13.11,13.11,0,0,1-2.26,1.92c-.12.08-.25.14-.37.21-1.13,2-2.65,3.67-3.84,5.6l.22.15c-1.19,2-1.92,3.28-2.66,4.52L2.93,200.62c-.48.79-1,1.58-1.42,2.4-3.11,5.65-1.36,10.53,4.78,12.62,14.33,4.88,28.71,9.63,43.28,14.5V235q0,57.69,0,115.39c0,6.64,1.35,8.6,7.62,10.95q61.4,23,122.77,46.07a14.65,14.65,0,0,0,10.43.24q69.16-23.16,138.39-46.15c6.94-2.31,8.29-4.23,8.29-11.64v-123c14.85-4.65,29.4-9.28,44-13.76,3.68-1.13,6.85-2.71,8.7-6.27V202C387.91,199.83,386.15,197.52,384.12,195.47ZM192.6,16a63.82,63.82,0,0,1,64.61,63.68c.35,34.79-28.39,63.8-63.48,64.05-35.3.25-64.08-28.46-64.28-64.12C129.26,45.33,158,16.34,192.6,16ZM19.9,203.4l25.22-42.07L173.35,204l-25.22,42.09ZM177,389c-1.43-.46-2.67-.82-3.89-1.28q-51.87-19.42-103.77-38.81c-3-1.11-3.93-2.49-3.92-5.69.14-34.46.09-68.93.09-103.39V235.5c11.81,3.92,23.27,7.71,34.71,11.52q23.07,7.68,46.13,15.37c7.3,2.42,9.69,1.48,13.74-5.25q8-13.33,16.05-26.65a6.12,6.12,0,0,1,.86-.84Zm12.09-199.14a11.11,11.11,0,0,1-6.47.3q-56-18.44-112-37.18c-.82-.28-1.61-.67-3.1-1.29,1.72-.69,2.74-1.17,3.81-1.53,18.9-6.31,37.82-12.55,56.69-19,2.59-.89,4-.33,5.73,1.61,31,34.23,82,35.93,115.46,4,1.11-1.06,3.37-2.05,4.64-1.64,16.18,5.19,32.28,10.65,48.39,16,0,.3.07.61.1.92l-18.73,6.26Q236.41,174.19,189.13,189.89ZM321,347.22,193.52,389.7v-167c3.57,4.43,6.61,8.2,9.64,12q8.61,10.74,17.2,21.49c3.7,4.61,6.16,5.39,11.83,3.61q41.82-13.09,83.62-26.24c1.62-.5,3.25-1,5.14-1.51ZM294.74,223.43c-20.14,6.33-40.3,12.6-60.41,19-2.6.83-4.18.59-6-1.72-8.91-11.43-18-22.69-27.08-34-.72-.91-1.38-1.86-2.36-3.18,9.11-3,17.9-5.94,26.69-8.88q48.56-16.2,97.09-32.48c3-1,5-.8,7.29,1.6,11.14,11.43,22.51,22.64,33.78,33.94.84.83,1.62,1.72,2.88,3.08C342.32,208.45,318.53,216,294.74,223.43Z"/><path d="M152.81,362.67a39.12,39.12,0,0,1-4-1.08q-22.2-8.29-44.38-16.65c-5.16-1.95-7.52-5.35-6.75-9.46,1-5.15,5.88-7.8,11.39-5.78,15.34,5.61,30.62,11.38,45.91,17.13a10.73,10.73,0,0,1,3.13,1.72c2.83,2.34,3.93,5.34,2.64,8.89C159.56,360.78,157.05,362.48,152.81,362.67Z"/><path d="M152.27,328.44c-1.06-.32-3-.81-4.82-1.51-5.19-2-10.46-3.78-15.49-6.11a7.4,7.4,0,0,1-3.76-9.44c1.36-3.78,5.21-6.18,9.19-4.9,6.66,2.13,13.24,4.59,19.67,7.36a7.21,7.21,0,0,1,3.88,9C159.85,326.35,156.78,328.57,152.27,328.44Z"/><path d="M185.22,93.15c4.54-4.74,8.34-8.8,12.25-12.74q13.91-14,27.91-27.9A20.84,20.84,0,0,1,229.66,49c3.29-1.85,6.5-1.21,9.11,1.4s3.26,5.81,1.41,9.11a20.79,20.79,0,0,1-3.52,4.28Q215,85.51,193.26,107.18c-6.09,6.09-9.72,6.1-15.79,0-4.23-4.22-8.5-8.4-12.67-12.69s-4.46-8.84-.93-12.3,7.93-3.06,12.31,1.13c1.54,1.46,3.06,2.95,4.51,4.51S183.29,90.9,185.22,93.15Z"/><circle class="cls-1" cx="193.94" cy="80.08" r="73.5"/></g></g></svg>