<svg xmlns="http://www.w3.org/2000/svg" viewBox="0 0 384 401.47"><defs><style>.cls-1{stroke:#fff;stroke-miterlimit:10;stroke-width:0.75px;}</style></defs><g id="Ebene_2" data-name="Ebene 2"><g id="Ebene_1-2" data-name="Ebene 1"><path d="M352.19,70.5C348.9,63.25,343,58.79,336.2,55c-.39-.22-.76-.48-1.38-.87,2.38-1.5,4.57-2.88,6.74-4.27a26.6,26.6,0,0,0,11.56-14.54,17.34,17.34,0,0,0-.91-12.85c-5.08-10.76-14.62-16-25.54-19.25-4.88-1.46-10.06-2-15.1-2.94-.4-.08-.79-.21-1.18-.32L64.27.23c-3.91.66-7.85,1.19-11.73,2a50,50,0,0,0-23,11,23.51,23.51,0,0,0-7.9,12.66c-2.13,9.42,1.92,16.3,8.86,22.07,2.9,2.42,6.22,4.35,9.42,6.55-2.11,1.29-4.48,2.63-6.72,4.13-4.79,3.2-8.68,7.25-10.8,12.53a18.52,18.52,0,0,0,.32,15.06C27,95.55,35,100.55,44.19,104c5.47,2,11.3,3.13,17.19,4.71,0,15.76,0,32,0,48.43,3.11-.38,9.31-1,17.6-1.8a4.36,4.36,0,0,1,1.91-1.48c0-24.52.07-49-.14-73.55-.06-7.45,4-12,10-15.34s13-4.54,20-4.55q57.18-.08,114.36-.12h1.57l-.1.12a5.09,5.09,0,0,1,1.06-.1,4.21,4.21,0,0,1,.5,0,4.63,4.63,0,0,1,.65,0,5.22,5.22,0,0,1,1.08.1,5.73,5.73,0,0,1,1-.1,5.07,5.07,0,0,1,2.21.48,6,6,0,0,1,1.07-.1,6.3,6.3,0,0,1,1,.09,67,67,0,0,1,12.67-.09l.08,0a5.49,5.49,0,0,1,2.72-.36,4.92,4.92,0,0,1,.67,0,5.14,5.14,0,0,1,1.95.36,5,5,0,0,1,1.33-.17,5,5,0,0,1,2.59.68,52.55,52.55,0,0,1,8.78-.88c-5.63,5-9.56,10.67-9.57,17.91s3.8,13,9.65,18.06l-28.75,0v0a5.25,5.25,0,0,1-1.88.34,4.42,4.42,0,0,0-1.57,0,5.65,5.65,0,0,1-1.11-.11c-.33,2.33,1.06,4.93,1.71,7.09a24.24,24.24,0,0,1,1,4.88,4.41,4.41,0,0,1,.52,0l1,0v0h2.5c22.78,0,45.56.07,68.34-.17a62.5,62.5,0,0,0,31.65-8.63c6.36-3.78,11.41-8.93,13.67-15.89A18,18,0,0,0,352.19,70.5ZM68.73,62.74C66.1,65.27,63.64,68,62.8,71.61a49.18,49.18,0,0,0-1.29,8.93c-.2,5,0,10,0,15.25-6.73-1.51-12.69-3.63-17.18-8.59-2.31-2.55-3.93-5.43-3.82-8.81A13.23,13.23,0,0,1,44,70c4-4.54,9.33-6.95,15.13-8.29,3.7-.85,7.55-1.09,11.32-1.6.21.31.41.62.61.93A18.15,18.15,0,0,0,68.73,62.74ZM263.55,48.19,71,48.37c-7.43,0-14.6-1.17-21.13-4.85a18.7,18.7,0,0,1-8.26-8.31c-2.24-4.89-1-9.34,2.43-13.34,4-4.59,9.32-7,15.15-8.27a59.25,59.25,0,0,1,12.25-1.28q96-.21,192-.24h2.39c-14.18,13.4-10.62,26.14.2,36.11Zm15.9-26.58c3.85-4.46,9-6.8,14.55-8.17a43.13,43.13,0,0,1,27.62,1.85c4.4,1.86,8.31,4.38,10.85,8.71,3.42,5.84,1.3,12.14-2.87,15.87-6.44,5.76-14.4,7.78-24.22,8.27-8.13-.07-17.06-1.61-24.42-8a13.85,13.85,0,0,1-5.07-9.08C275.5,27.53,277,24.39,279.45,21.61Zm53.32,62.26c-4.16,7.27-11.41,9.93-19.19,11.56a70.82,70.82,0,0,1-7.22.87c-8.18-.15-14.91-1.39-21.06-4.84a18.68,18.68,0,0,1-8.26-8.3c-2.24-4.86-1.09-9.34,2.37-13.34,3.88-4.5,9.08-6.9,14.72-8.25a43.23,43.23,0,0,1,27.43,1.83c4.64,1.94,8.81,4.55,11.22,9.14A11.2,11.2,0,0,1,332.77,83.87Z"/><path d="M304.71,38.68c-2.31-.9-5-1.33-6.86-2.79-4-3.08-3.42-4.62-.59-7.52,3.51-3.61,12.83-3.28,16.31.38a4.45,4.45,0,0,1-.79,7,12.41,12.41,0,0,1-7.87,2.41Z"/><path d="M304.62,87.75c-3.29-.27-6.91-1-8.86-4.67a4.07,4.07,0,0,1,.06-3.1c1.87-4.09,7.86-5.09,11.4-4.45,2.83.51,5.56,1.26,7.06,4.13,1.14,2.19.75,3.89-1.19,5.44A13,13,0,0,1,304.62,87.75Z"/><path class="cls-1" d="M383.63,232.2a53.14,53.14,0,0,1-3.78,6.73c-3.48,4.63-8.44,6.39-14.1,6.41H350.19v122c1.61,0,3.29,0,5,0,10.15.23,17.1,7.19,17.25,17.26,0,1.38,0,2.75,0,4.12-.08,7.42-4.31,12-11.72,12.23-6,.21-12,.06-18,.07-8.23,0-16.47.06-24.7,0-8.75-.08-12.87-4.45-13-13.25-.1-5.25.39-10.24,4-14.41a16.54,16.54,0,0,1,13.16-6h16.31V245.59H302.91v4.62q0,45.28,0,90.57c0,10.4-4.9,15.34-15.37,15.34q-95.43,0-190.87,0c-10.72,0-15.55-4.87-15.55-15.52q0-45.11,0-90.2v-4.73H45.55V367.36c5.09,0,10.05,0,15,0,11.57.05,18.36,6.83,18.4,18.35,0,1.37,0,2.75,0,4.12-.26,6-4.24,10.82-10.18,10.94q-23.55.44-47.13,0c-5.75-.11-9.75-4.94-10-10.69-.11-2.24-.1-4.49,0-6.73A16.57,16.57,0,0,1,26.8,367.51c2.32-.21,4.68,0,7.07,0V245.35c-4.89,0-9.6,0-14.3,0C7,245.26.38,238.67.38,226.18q0-49.77,0-99.55c0-18.53,11.6-30.23,30-30.23q130.62,0,261.24,0a24.35,24.35,0,0,1,3.73.15,5,5,0,0,1,4.61,5c.16,3-1.27,5.09-4.27,5.69a26.59,26.59,0,0,1-5.21.32H72.91v10.95H311.36c0-4.94,0-9.76,0-14.59.05-5.93,1.67-7.57,7.59-7.58q17.4,0,34.81,0c15.42,0,25.27,7.66,29.29,22.6a3.59,3.59,0,0,0,.57.92ZM92.33,194.78V340c0,4.89,0,4.91,5.07,4.91q94.5,0,189,0c5.26,0,5.27,0,5.27-5.08V194.94H270c-.81.14-8.42,1.35-12.06-2a9.59,9.59,0,0,0-2.17-2.48c-1.25-.87-1.79-2.93-2.39-4.55-2.44-6.53-4.71-13.13-7.22-19.63-.4-1-1.72-2.44-2.6-2.43-7.76.08-12.47-3.49-13.8-11H72.84v50.93H81.1v-7.08c0-9,4.22-13.19,13.32-13.19H234.77a17.86,17.86,0,0,1,3.36.1c2.91.56,4.72,2.3,4.79,5.35.07,3.23-1.76,5.1-4.84,5.68a21.07,21.07,0,0,1-3.73.09h-142ZM61.17,107.62H57.26q-13.45,0-26.93,0c-12,0-18.72,6.72-18.72,18.77q0,49.74,0,99.49c0,6.57,1.6,8.22,8.13,8.23q19.07,0,38.15,0c1.07,0,2.15-.17,3.28-.27ZM322.8,234.06c14.9,0,29.35.1,43.8-.06,4.14-.05,5.79-2.37,5.79-7.09q0-50.88,0-101.74c0-10.36-7-17.38-17.31-17.53-6.73-.09-13.46,0-20.19,0H322.8Zm-93-103.63h-157V141h157Zm11.64-.13v22h47.1v-22ZM311,203.93V152.54c-3.09,0-5.84-.13-8.56.08a3.27,3.27,0,0,0-2.41,1.56c-3.17,7.81-5.27,9.31-13.55,9.64-1.18,0-3.07.54-3.39,1.32-2.38,6-4.45,12-6.74,18.41H284c2.49,0,5-.05,7.48,0,6.64.17,11.22,4.71,11.4,11.32.08,3,0,5.91,0,9.05ZM67.73,389.59c0-1.91.09-3.64,0-5.36-.21-3.33-2-5.5-5.37-5.54q-17-.19-34,0c-3.37,0-5.19,2.16-5.43,5.49-.12,1.72,0,3.46,0,5.42Zm293.43.05c0-2,.08-3.64,0-5.25-.2-3.53-2.09-5.68-5.6-5.72q-16.83-.18-33.66,0c-3.52,0-5.41,2.18-5.6,5.71-.09,1.7,0,3.4,0,5.26Zm-288.28-174v18.09h8V215.67Zm230.23,0v18.22H311V215.66Zm-38.75-32.17c2.5-6.93,4.72-13.07,7-19.45h-14Zm46.72-42.38v-10.8h-10.6v10.8Z"/><path d="M182.76,244a42,42,0,1,1-41.35,43.53A41.83,41.83,0,0,1,182.76,244Zm.54,77.41a35.47,35.47,0,1,0-35.42-36.12A35.36,35.36,0,0,0,183.3,321.43Z"/><path d="M183.35,306.29a20.11,20.11,0,0,1-13.67-5.18,17.32,17.32,0,0,1-4.51-6.38,2.39,2.39,0,1,1,4.38-1.9,13.6,13.6,0,0,0,6.42,6.89c7,3.64,15.92,1.66,20.17-5a18.15,18.15,0,0,0,1-1.85,2.42,2.42,0,0,1,3.19-1.3,2.37,2.37,0,0,1,1.19,3.22,19,19,0,0,1-12.14,10.62A19.4,19.4,0,0,1,183.35,306.29Z"/><path d="M167.67,274.6a4.92,4.92,0,1,1,4.88,4.94A4.92,4.92,0,0,1,167.67,274.6Z"/><path d="M199.76,274.59a4.92,4.92,0,1,1-5-4.91A4.94,4.94,0,0,1,199.76,274.59Z"/><path d="M227.11,237.61a16.94,16.94,0,1,1,17.21,16.95A16.95,16.95,0,0,1,227.11,237.61Zm17-14.52a14.54,14.54,0,1,0,14.51,14.65A14.54,14.54,0,0,0,244.07,223.09Z"/><path d="M266.23,236.5h3.3a1.15,1.15,0,0,1,1.14.74,1.21,1.21,0,0,1-.31,1.35,1.23,1.23,0,0,1-.87.31H263a1.2,1.2,0,1,1-.05-2.4Z"/><path d="M242.86,215.2v-3.3a1.19,1.19,0,0,1,2.38-.16,2,2,0,0,1,0,.23v6.45a1.19,1.19,0,0,1-.68,1.18,1.17,1.17,0,0,1-1.72-1.07c0-1,0-2,0-3Z"/><path d="M244.91,259.88v3.3a1.15,1.15,0,0,1-.72,1.13,1.2,1.2,0,0,1-1.36-.29,1.23,1.23,0,0,1-.32-.89c0-2.18,0-4.36,0-6.54a1.21,1.21,0,0,1,1.82-1.1,1.16,1.16,0,0,1,.58,1.06Z"/><path d="M221.54,238.56h-3.31a1.18,1.18,0,0,1-1.06-1.78,1.23,1.23,0,0,1,1.18-.62h6.47A1.24,1.24,0,0,1,226,237a1.19,1.19,0,0,1-1.07,1.53c-.32,0-.64,0-1,0Z"/><path d="M225.67,256.76a1.2,1.2,0,0,1-1.19-.78,1.27,1.27,0,0,1,.3-1.3l3.85-3.84.84-.83a1.2,1.2,0,1,1,1.71,1.68c-.69.71-1.4,1.41-2.1,2.11l-2.54,2.54A1.15,1.15,0,0,1,225.67,256.76Z"/><path d="M262.12,218.29a1.22,1.22,0,0,1,1.17.78,1.29,1.29,0,0,1-.32,1.32L260,223.32c-.59.59-1.18,1.19-1.78,1.77a1.2,1.2,0,0,1-1.67-1.73c.49-.5,1-1,1.49-1.48l3.16-3.17A1.23,1.23,0,0,1,262.12,218.29Z"/><path d="M263.12,255.81a1.2,1.2,0,0,1-2.06.83c-1.23-1.22-2.45-2.45-3.68-3.68l-1-1a1.2,1.2,0,1,1,1.67-1.73c1.21,1.19,2.4,2.39,3.6,3.59l1.09,1.09A1.2,1.2,0,0,1,263.12,255.81Z"/><path d="M225.68,218.06a1.32,1.32,0,0,1,1.08.4l3.51,3.51,1.18,1.19a1.2,1.2,0,0,1-1.73,1.67l-2.08-2.07L225,220.15a1.19,1.19,0,0,1-.29-1.36A1.14,1.14,0,0,1,225.68,218.06Z"/></g></g></svg>