<svg xmlns="http://www.w3.org/2000/svg" viewBox="0 0 226 239.58"><defs><style>.cls-1{stroke:#1d1d1b;stroke-miterlimit:10;stroke-width:7px;}</style></defs><g id="Ebene_2" data-name="Ebene 2"><g id="Ebene_1-2" data-name="Ebene 1"><path class="cls-1" d="M3.5,231.67V72.93c5.48-4.71,11.87-5.57,18.84-5,5.49.42,11,.08,16.56.08H63.34C65.21,56.41,61.71,45.07,66.6,34c3.34-7.52,7.32-14.27,13.64-19.15,5.9-4.56,12.21-8.5,20-10C111.79,2.66,123,3,133.81,7c7.3,2.72,12.81,8.31,18.77,13.29,5.18,4.31,6.34,10.3,9.12,15.42,2.4,4.41,1.86,10.54,2.18,15.94S164,62.23,164,68h5c14.89,0,29.78,0,44.67,0a8.93,8.93,0,0,1,8.81,8.72q0,76.08.06,152.14c0,4.83-2.4,6.69-6.68,7-1.83.15-3.68.1-5.52.1q-95.61,0-191.24,0C13.5,236,7.58,237.1,3.5,231.67ZM206,221.43V85.12H22.67V221.43ZM145.26,67.77c0-8.56.09-16.58,0-24.59-.13-9.22-6.59-14.53-13-19.5-7.66-6-17-4.66-25.74-4-9.89.74-17.46,5.78-21.79,15a23.53,23.53,0,0,0-2.29,7.23c-.93,8.6-1.54,17.23-2.28,25.9Z"/></g></g></svg>