<svg xmlns="http://www.w3.org/2000/svg" viewBox="0 0 457.17 222.42"><defs><style>.cls-1{fill:#fff;}.cls-2{fill:#e53312;}.cls-3{fill:#e6e462;stroke:#e5e364;stroke-miterlimit:10;stroke-width:0.5px;}.cls-4{fill:#ffe000;}</style></defs><g id="Ebene_2" data-name="Ebene 2"><g id="Ebene_1-2" data-name="Ebene 1"><path class="cls-1" d="M345.86,191.71c-44.59.34-81.9-36.7-81.32-82.32a81.34,81.34,0,0,1,82-80.25c22.17.11,41.4,8.23,57.07,24C419.74,69.36,427.7,89.19,427.31,112A81.18,81.18,0,0,1,345.86,191.71Z"/><path class="cls-2" d="M0,118.58V104.09a2,2,0,0,0,.27-1.28A58.5,58.5,0,0,1,1.42,92.42,108.62,108.62,0,0,1,14.2,56.56,110.13,110.13,0,0,1,38.14,27.34a112.84,112.84,0,0,1,21.18-14.5,110.19,110.19,0,0,1,24.23-9.3A111.69,111.69,0,0,1,105,.27,2,2,0,0,0,106.26,0H350.74a18.05,18.05,0,0,0,4.51.52,109.74,109.74,0,0,1,16.62,2.64,110.92,110.92,0,0,1,27.51,10.61,113.17,113.17,0,0,1,24.83,18.47c2.64,2.59,5.09,5.36,7.46,8.2a110.49,110.49,0,0,1,20.49,37.67A103.7,103.7,0,0,1,456.9,103a122.22,122.22,0,0,1-.16,18.45A105.16,105.16,0,0,1,454.45,136a111.11,111.11,0,0,1-10.59,28.12A111.51,111.51,0,0,1,405.92,205a112.3,112.3,0,0,1-24.61,11.79,110.06,110.06,0,0,1-35,5.66q-117.35,0-234.7,0a116,116,0,0,1-19-1.47,107.92,107.92,0,0,1-27.77-8.48,111.49,111.49,0,0,1-41.41-32.63A111.17,111.17,0,0,1,3.33,139.21a85.23,85.23,0,0,1-3.06-19.5A1.88,1.88,0,0,0,0,118.58Zm345.86,74a81.18,81.18,0,0,0,81.45-79.68C427.7,90,419.74,70.2,403.59,54c-15.67-15.75-34.9-23.87-57.07-24a81.33,81.33,0,0,0-82,80.24C264,155.85,301.27,192.89,345.86,192.55Zm-170.6-80a64.26,64.26,0,0,0-2-16.51,65.3,65.3,0,0,0-19.56-32.21,64.44,64.44,0,0,0-50.77-16.27,66,66,0,0,0-18.63,5,68.06,68.06,0,0,0-12.57,7.13,62.13,62.13,0,0,0-10.1,9.07A65.79,65.79,0,0,0,46.68,97.36a4,4,0,0,0,4,5A5.31,5.31,0,0,0,54,101a50,50,0,0,1,9.41-6.09,46.49,46.49,0,0,1,9.1-3.43A54.08,54.08,0,0,1,82.62,90a45.24,45.24,0,0,1,12,.95,47.73,47.73,0,0,1,18.75,8.36,45.57,45.57,0,0,1,6,5.21,51,51,0,0,1,7.17,9.53,48.57,48.57,0,0,1,5.62,15,46.6,46.6,0,0,1,.8,11.74,47.92,47.92,0,0,1-7.08,22.89c-.92,1.47-2,2.83-3,4.2a5.11,5.11,0,0,0-1.25,2.64,4.33,4.33,0,0,0,5.68,4.49c1.8-.5,3.59-1.08,5.33-1.74a66.35,66.35,0,0,0,19.65-11.56,64.4,64.4,0,0,0,22.91-49.15Z"/><ellipse class="cls-2" cx="125.65" cy="102.59" rx="79.1" ry="72.6"/><path class="cls-3" d="M179.2,131.57a42.81,42.81,0,0,1-4.06,7,50.17,50.17,0,0,1-6.89,7.88,48.86,48.86,0,0,1-9,6.7,50.31,50.31,0,0,1-10.61,4.64,48.24,48.24,0,0,1-7.89,1.71,37,37,0,0,1-4.68.43,43.79,43.79,0,0,1-9.39-1.1,50.49,50.49,0,0,1-12.22-4.37,51.1,51.1,0,0,1-8.77-5.74,52.28,52.28,0,0,1-5.74-5.49,47.75,47.75,0,0,1-6.61-9.33,51.27,51.27,0,0,1-4.07-9.81,14.69,14.69,0,0,1-.6-2.37,3.75,3.75,0,0,0,.87.1c1.79-.21,3.59,0,5.37-.26a1.73,1.73,0,0,1,.18.36,35.68,35.68,0,0,0,2.57,7.15,43.32,43.32,0,0,0,5.84,9.07,41.32,41.32,0,0,0,8,7.37,40.55,40.55,0,0,0,9.3,5,42.82,42.82,0,0,0,13.17,2.7,40.9,40.9,0,0,0,8.83-.62,41.84,41.84,0,0,0,10.57-3.28,42.69,42.69,0,0,0,11.27-7.68,37.26,37.26,0,0,0,5.37-6.31c.9-1.34,1.76-2.7,2.64-4a2.29,2.29,0,0,0,1.77-.21c.38-.16.82-.28,1,.29.11.4.25.81.71.67s1-.34.94-1c0-.43,0-.55-.6-.59-1.15-.09-2.28.2-3.42.06a4.44,4.44,0,0,1,.6-1.14,5.52,5.52,0,0,0,1.67-.13c.92-.32,1.89.14,2.82-.1.1,0,.33.08.24.36l-.77.06a.39.39,0,0,0-.37.36c0,.16,0,.36.18.38a1.34,1.34,0,0,1,1.28,1.09C178.77,131.5,179,131.56,179.2,131.57Z"/><path class="cls-3" d="M79.71,41.67a22.87,22.87,0,0,1,2.7,2.23c3,2.58,5.83,5.34,8.84,7.91,1.64,1.4,3.16,3,4.77,4.41,2.35,2.11,4.76,4.15,7.08,6.3,2,1.9,4.36,3.46,6.31,5.47.36.37.53.56-.07.92a51.45,51.45,0,0,0-10.83,9,1.59,1.59,0,0,0-.58.85C97.26,78.3,80,43.07,79.71,41.67Z"/><path class="cls-3" d="M171.19,146.52a14.93,14.93,0,0,1,.83,2.31,12.53,12.53,0,0,0,.8,2.12c1,2.28,1.82,4.6,2.68,6.92,1,2.66,2.12,5.27,3.13,7.93,1.11,2.93,2.32,5.82,3.36,8.78.64,1.8,1.51,3.52,2.15,5.32a48,48,0,0,1,1.67,4.52.66.66,0,0,0,0,.15c.17.29.68.61.26.91s-.5-.35-.7-.55c-1.56-1.62-3.08-3.29-4.61-4.94-1-1.07-2-2.15-3-3.21-2.7-2.87-5.44-5.71-8.11-8.61-1.39-1.53-2.82-3-4.23-4.54-2.18-2.34-4.35-4.69-6.55-7-.65-.68.09-.81.42-1a44.79,44.79,0,0,0,4.55-2.76,43.78,43.78,0,0,0,6.57-5.43A11,11,0,0,0,171.19,146.52Z"/><path class="cls-3" d="M168.19,27.72c-.14.8-.22,1.61-.41,2.39-.82,3.43-1.5,6.88-2.23,10.32-.59,2.81-1.21,5.61-1.77,8.43-.66,3.28-1.52,6.53-2.15,9.82-.45,2.35-1.09,4.67-1.37,7.06a9.69,9.69,0,0,0-.33,1.5c0,.38-.4.23-.63.1a46.05,46.05,0,0,0-9.52-3.94c-1.38-.43-2.81-.73-4.23-1-.43-.09-.5-.22-.28-.56.48-.75,1-1.49,1.45-2.25,1.28-2,2.71-3.94,4-6,1-1.66,2.27-3.19,3.29-4.85,1.22-2,2.57-3.84,3.82-5.79s2.43-3.57,3.64-5.35c1-1.41,1.84-2.86,2.82-4.25,1.11-1.57,2-3.27,3.25-4.78a5.81,5.81,0,0,0,.49-.88Z"/><path class="cls-3" d="M98.33,144.8c1.07,1.08,2.09,2.15,3.14,3.19a47.9,47.9,0,0,0,8.47,6.46c.7.43.51.39-.06.75-1.52,1-2.95,2.15-4.43,3.23-1.66,1.21-3.33,2.41-5,3.63L95.16,166,88,171.23l-5.5,4.05-4.81,3.51c-.09.07-.17.25-.32.08s0-.36.1-.49c.94-1.51,1.89-3,2.83-4.51q4-6.47,8.07-12.93c2.38-3.82,4.77-7.64,7.1-11.49C96.37,147.92,97.22,146.35,98.33,144.8Z"/><path class="cls-3" d="M46.55,109.58c13.16-1.9,26.31-3.69,39.47-5.56a5.15,5.15,0,0,1-.13,2.28,42.14,42.14,0,0,0-.24,7.61,28.57,28.57,0,0,0,.58,5.21c.1.43,0,.54-.52.4-1.76-.49-3.53-.9-5.29-1.34-2-.52-4.07-1.12-6.13-1.54s-4.3-1.07-6.47-1.54c-1.47-.31-2.91-.72-4.38-1.07-1.66-.4-3.34-.75-5-1.19-1.32-.36-2.66-.65-4-1-2.53-.62-5.06-1.27-7.59-1.91C46.77,109.92,46.65,110,46.55,109.58Z"/><path class="cls-3" d="M141.13,172.54c-1.18-3.6-2.37-7.21-3.58-10.92,2.63-.3,5.23-.47,7.8-1a66.42,66.42,0,0,0,7.53-2.09,32.19,32.19,0,0,1-.28,4.1c-.08.88.05,1.77-.07,2.64s0,1.6-.15,2.39c-.22,1.63-.24,3.27-.35,4.91s-.31,3.32-.41,5c-.1,1.51-.09,3-.2,4.54s-.28,3.13-.33,4.7-.19,3.27-.3,4.9q-.24,3.74-.49,7.47c0,.17.08.41-.21.44s-.22-.21-.28-.38c-1.1-3.33-2.24-6.65-3.32-10-.92-2.83-1.76-5.7-2.67-8.53-.74-2.32-1.54-4.61-2.31-6.92a3.78,3.78,0,0,1-.1-.46,3.5,3.5,0,0,0,.8-.09,2.49,2.49,0,0,1,2.15,0,1.74,1.74,0,0,0,1.25.11,5.28,5.28,0,0,1,3.59.3,2.07,2.07,0,0,0,1.1.09c.2,0,.46-.11.45-.38s-.26-.22-.44-.23-.37-.21-.55-.29a6.75,6.75,0,0,0-2.59-.84c-1,0-2.08.74-3.07-.15-.06,0-.21,0-.31,0A4.84,4.84,0,0,0,141.13,172.54Z"/><path class="cls-3" d="M79,131.56c1-.69,2-1.39,3-2.06,1.61-1.05,3.25-2.08,4.87-3.13.87-.56.88-.58,1.17.39a46,46,0,0,0,3.1,7.56A47,47,0,0,0,94.53,140c-13.49,2.35-26.78,5.3-40.29,7.83.45-.81,1.22-1.06,1.82-1.46,2.37-1.59,4.78-3.12,7.18-4.67,3.18-2.05,6.32-4.16,9.53-6.16,1.16-.73,2.27-1.55,3.46-2.22H84.5a1.51,1.51,0,0,1,1.06.23,1,1,0,0,0,1,0c.33-.15.09-.47.07-.72a.67.67,0,0,1,.08-.3c.32-.6,0-.69-.52-.69H84.35a8.34,8.34,0,0,1-2.54,0A11,11,0,0,0,79,131.56Z"/><path class="cls-3" d="M94,88.16a26.32,26.32,0,0,1,2.77-4.43,48.89,48.89,0,0,1,6.82-7.62,44.61,44.61,0,0,1,8.51-6.25c.36-.2.66-.55,1.11-.58a.44.44,0,0,0,.43.17,22,22,0,0,1,3.44,0,15.45,15.45,0,0,1,4.55.21c.37.11.88,0,.88-.36a1.85,1.85,0,0,0-.49-1.39c-.35-.28-.82-.09-1.21.13-.23.13-.48.24-.7.39a.58.58,0,0,1-.5.06,6.22,6.22,0,0,0-4,.16,1.33,1.33,0,0,1-1.24,0A43.55,43.55,0,0,1,122,65.43a47.43,47.43,0,0,1,8.72-2,32.33,32.33,0,0,1,5-.43,47.11,47.11,0,0,1,9.51,1.23,51.45,51.45,0,0,1,9.67,3.27,4.3,4.3,0,0,1,.45.29c-.2.27-.5.21-.74.17-1.18-.22-2.38,0-3.53-.2-1.36-.19-2.71,0-4-.15a11.06,11.06,0,0,0-2.86-.27,19.23,19.23,0,0,1-2.94,0,16,16,0,0,0-2.48-.12,25.92,25.92,0,0,1-3.05.12c-.58,0-1.16,0-1.18-.85,0-.23-.33-.35-.36-.16-.13.75-.85.93-1.19,1.43s-.64.56-1.21.33a1.56,1.56,0,0,0-1.63.41c-.36.34.15.6.21.91a8.64,8.64,0,0,1-2.26.33c0-.45-.2-.65-.63-.62a.63.63,0,0,1-.75-.56c-.07-.7-.5-.74-1.06-.75a1.57,1.57,0,0,0-1.51,1.1c-.13.27-.37.49-.07.77s.56.53.91.32a7,7,0,0,1,1.47-.35c.26-.09.61-.16.68.29,0,0-.07.1-.11.11a41.4,41.4,0,0,0-11.83,4.46A44.55,44.55,0,0,0,106.47,81,42,42,0,0,0,100.64,88a1.89,1.89,0,0,0-1.7.11,1.89,1.89,0,0,1-1.4.13A7.4,7.4,0,0,0,94,88.16Z"/><path class="cls-3" d="M179.2,131.57c-.2,0-.43-.07-.47-.25a1.34,1.34,0,0,0-1.28-1.09c-.19,0-.2-.22-.18-.38a.39.39,0,0,1,.37-.36l.77-.06c.09-.28-.14-.39-.24-.36-.93.24-1.9-.22-2.82.1a5.52,5.52,0,0,1-1.67.13l1-2.42a41.87,41.87,0,0,0,3-13.63,32.58,32.58,0,0,0-.09-5.13,47.79,47.79,0,0,0-1-6.66,41,41,0,0,0-4.79-11.79c-.74-1.21-1.63-2.33-2.3-3.59.15-.21.37-.17.58-.17l5.89-.17a16.32,16.32,0,0,1,1.77,2.8,49.41,49.41,0,0,1,5.09,12.94,38.36,38.36,0,0,1,1,6.33,28,28,0,0,1,.29,4.29,55.74,55.74,0,0,1-1.11,8.33,45.86,45.86,0,0,1-2.73,8.56c-.43,0-.93-.14-1.26.36.38.2.72.08,1.05.12A12.27,12.27,0,0,1,179.2,131.57Z"/><path class="cls-3" d="M78.82,90.92l-8.18-6.53a2.41,2.41,0,0,1-.37-.41c.72,0,1.46-.21,2.14-.13,1.85.23,3.69,0,5.53.12a1.44,1.44,0,0,0,.47-.06.37.37,0,0,0,.18-.24c0-.14-.12-.16-.22-.17A11.66,11.66,0,0,0,74,83.26a8,8,0,0,1-2.76,0,2.6,2.6,0,0,0-1.78.09c-1.19-.76-2.2-1.75-3.3-2.61-2.32-1.82-4.63-3.64-6.91-5.5-1.15-.94-2.29-1.9-3.47-2.79-.11-.08-.22-.18-.13-.34s.22-.13.39-.08l9.46,2.87c3.65,1.09,7.26,2.28,10.92,3.3,2.64.74,5.24,1.62,7.85,2.45,2,.62,3.94,1.12,5.86,1.86-.12.06-.23.17-.35.17h-6.6c-.23,0-.43-.18-.69,0a5.56,5.56,0,0,1-2.68.68c-.23,0-.58,0-.57.28s.32.31.62.26a12.7,12.7,0,0,1,2.81-.09c1.61.12,3.19,0,4.78,0,2.13,0,4.26.46,6.4,0q-1.47,2.59-2.93,5.2c-.23.4-.41.83-.62,1.25-3.32-.15-6.61.36-9.92.35C79.89,90.62,79.27,90.48,78.82,90.92Z"/><path class="cls-3" d="M130.92,43.8l1.38,6.09q.69,3.09,1.36,6.17c-1.12-.18-2.2.26-3.37.08-.92-.13-1.94.14-2.92-.07a1.25,1.25,0,0,0-.78.13,2.47,2.47,0,0,1-2.64.07,1.62,1.62,0,0,0-1.33,0,4.9,4.9,0,0,1-2,.26c.37-2.35.73-4.7,1.1-7s.76-4.65,1.11-7,.64-4.61,1-6.92c.29-1.88.65-3.75.92-5.63.17-1.15.29-2.31.56-3.44a3.55,3.55,0,0,1,1.6.31c.58,2.47,1.17,4.95,1.76,7.42s1.16,4.91,1.73,7.36a2.61,2.61,0,0,1,0,.56c-1.16,0-2.33,0-3.5,0-.48,0-1,.19-.71.92a.9.9,0,0,1,0,.46c-.11.63.34.71.71.58a11.31,11.31,0,0,1,1.25-.22C129.08,43.73,130,44.21,130.92,43.8Z"/><path class="cls-3" d="M181.63,91.39a7.56,7.56,0,0,1-.85-1.93c.94-.09,1.93.24,2.8-.4.09-.07.31.07.46,0,.74-.1,1.48.32,2.21,0a13.18,13.18,0,0,1,2.14-.19c1.3-.25,2.81.8,3.91-.63,0,0,.16,0,.22-.08s.26-.15.28-.25-.19-.23-.33-.28a1.07,1.07,0,0,0-.93.15,1.63,1.63,0,0,1-1,.16c-1.74-.1-3.48-.09-5.22-.16s-3.47.18-5.21.29c-.52-.42-.59-1.09-1-1.64l3-.3,5.91-.64,4.85-.55c1.88-.2,3.75-.38,5.63-.59s3.91-.42,5.86-.66c2.55-.32,5.12-.56,7.67-.88,2.07-.26,4.16-.43,6.23-.69.68-.08,1.37,0,2.05-.19.13,0,.31-.21.4,0s-.12.24-.25.31c-1.05.58-2.09,1.17-3.15,1.73q-6.33,3.39-12.67,6.74c-.3.16-.62.28-.93.41,0-.28-.18-.38-.44-.28a5.35,5.35,0,0,1-1.44.1c-.78.1-1.57-.38-2.3-.11a7.23,7.23,0,0,1-2.65.32,29.75,29.75,0,0,1-3.77-.19,6.35,6.35,0,0,0-2.71.31,21.6,21.6,0,0,1-3.18.29c-.12,0-.26-.16-.39-.24-.38-.21-.79-.48-1.21-.33A14.08,14.08,0,0,1,181.63,91.39Z"/><path class="cls-3" d="M126.73,169.64c-.81,1.51-1.55,3.06-2.47,4.52a4.55,4.55,0,0,0-.27.64,1.21,1.21,0,0,1-.83-.27,1.79,1.79,0,0,0-1.82-.22,3.79,3.79,0,0,1-2.42.24.39.39,0,0,0-.51.28c-.08.26.11.37.33.45s.63.23.49.59-.51.23-.8.2a1.86,1.86,0,0,1-.52-.2.48.48,0,0,0-.73.25c-.16.37.16.53.45.6s.69.11.66.34c-.07.69.52,1,.71,1.56,0,.15,0,.34.25.35a.37.37,0,0,0,.37-.26c.08-.19.08-.5.37-.43s.29.36.3.6,0,.51.34.56a.54.54,0,0,0,.6-.42c.12-.36.28-.64.7-.66a4.66,4.66,0,0,1-1.17,1.83c-.29.21-.2.85-.41,1.23-1.4,2.54-2.84,5.05-4.24,7.59s-2.87,5.29-4.31,7.93c-.1.18-.15.49-.41.38s-.09-.35-.06-.56c.15-1.13.28-2.26.42-3.39.25-2,.51-3.93.76-5.9.14-1.11.23-2.22.37-3.32.19-1.53.4-3.05.59-4.57.14-1.13.23-2.27.37-3.4.2-1.59.42-3.18.63-4.77a.35.35,0,0,1,.34.45c-.16.87.59.88,1.07,1.12.23.11.42,0,.53-.25s.29-.54.06-.82-.34-.18-.55,0-.4-.08-.37-.19c.16-.61-.26-.87-.7-1.12a15.25,15.25,0,0,1,2.94-.61,12.73,12.73,0,0,1,3.48-.1,10.06,10.06,0,0,0,3.79-.06A4.45,4.45,0,0,1,126.73,169.64Zm-6.58,10.51a.53.53,0,0,0-.53-.63.55.55,0,0,0-.6.59c0,.5.45.68.79.74S120.12,180.51,120.15,180.15Z"/><path class="cls-3" d="M114.67,169.48c.49-3.94,1-7.87,1.47-11.89a50.61,50.61,0,0,0,15.18,3.8c-1.46,2.63-2.84,5.12-4.23,7.61-1.34-.27-2.78.05-4-.72a.44.44,0,0,0-.59.08c-.51.64-1.17.44-1.84.42a5.77,5.77,0,0,0-2.43.14C117,169.43,115.84,169.25,114.67,169.48Z"/><path class="cls-3" d="M193.08,138.33l1.12,1.13c-.65.54-1.44.3-2.15.29a40.71,40.71,0,0,1-4.42.06.56.56,0,0,0-.7.66c.06.52-.24.68-.67.82-.23.07-.54,0-.72.29a.91.91,0,0,0,.82.43,19.36,19.36,0,0,1,2.63-.17,18.56,18.56,0,0,1,4.94-.16,4.65,4.65,0,0,0,2.53-.12l1.61,1.6c-.11.06-.24.19-.34.17-1.28-.21-2.56.16-3.81,0a6.79,6.79,0,0,0-2.21.07,10.62,10.62,0,0,1-1.87,0c-1.22,0-2.44,0-3.66-.09-1.57-.09-3.13.27-4.72,0-.58-.1-1.61-.25-2,.76a36.77,36.77,0,0,1-3.64-1.45c-.2-.1-.42-.18-.64-.27a7.8,7.8,0,0,1,1-1.38c.37.27,1,.25,1,.91,0,.29,0,.55.4.55s.57,0,.72-.36a.77.77,0,0,1,1.28-.4,1.14,1.14,0,0,0,.7.12h4c.19,0,.43.11.58-.23-.39-.1-.78-.18-1.14-.3s-.6-.16-.5-.52c.26-.92-.55-.82-.9-.79-1.82.17-3.63.05-5.44.08,1.17-1.79,2.29-3.62,3.28-5.51a53.57,53.57,0,0,0,2.6-6c2.74,2.65,5.51,5.19,8.14,7.9a1.39,1.39,0,0,1-1.35.67,46.14,46.14,0,0,1-5.26-.34,2.4,2.4,0,0,0-1.42.45c-.56.32-.25.73-.14,1s.39.79.85.7c1.12-.21,2.25,0,3.37-.23s2.14.13,3.16-.06S192.12,138.48,193.08,138.33Z"/><path class="cls-3" d="M175.3,64.28c1-.82,2.23-1.36,3.32-2.08s2.16-1.31,3.24-2l4.78-2.88c1.12-.68,2.25-1.34,3.35-2,1.95-1.22,4-2.31,5.91-3.55a43.22,43.22,0,0,0,4.18-2.64c.1-.08.22-.23.33-.09s0,.28-.14.44c-1.4,1.73-2.64,3.58-4,5.32-1.1,1.37-2.07,2.84-3.14,4.24-1.78,2.34-3.54,4.7-5.31,7.05a1.33,1.33,0,0,1-.19.14c-.83-.37-2-.52-2.41-1.16-.68-1-1.05-1.3-2.24-.69-.77.4-1.89.16-2.84.17a29.25,29.25,0,0,0-4.19-.11A1.54,1.54,0,0,1,175.3,64.28Z"/><path class="cls-3" d="M185.34,118.66a1.15,1.15,0,0,1,.16-1c.49-.16.9.26,1.4.19a6.48,6.48,0,0,1,2.18-.15c1.58.31,3.14-.06,4.71,0a37.14,37.14,0,0,0,6.32-.2c.73-.1,1.52.1,2.2-.4a.75.75,0,0,1,.7,0c2,.63,4,.16,6,.25a.69.69,0,0,0,.31-.06,6.27,6.27,0,0,1,3-.29c.49.07,1.09.25,1.39-.43,1.26.43,2.52.84,3.77,1.3,2.21.83,4.51,1.44,6.69,2.35.32.13.73,0,1.07.48-1.43.1-2.73.22-4,.29-2.08.1-4.15.14-6.23.25-3.31.17-6.62.38-9.93.52-3,.12-6,.32-9.08.48-1.72.08-3.44.21-5.16.25a.63.63,0,0,1,.56-.6c1.42-.18,2.84-.4,4.27-.47a12,12,0,0,0,2.09-.49c.13,0,.29-.06.26-.24s-.13-.21-.2-.21a3.93,3.93,0,0,1-2.46-1.11c-.27-.26-.89-.09-.74-.81,0-.19-.31-.25-.53-.23C191.15,118.52,188.22,118,185.34,118.66Zm17.32,2a3.67,3.67,0,0,0-4-.33c-.1.08-.24.12-.25.28s.1.22.24.26A7.84,7.84,0,0,0,202.66,120.7Z"/><path class="cls-3" d="M181.63,91.39a14.08,14.08,0,0,0,4-.27c.42-.15.83.12,1.21.33.13.08.27.26.39.24a21.6,21.6,0,0,0,3.18-.29,6.35,6.35,0,0,1,2.71-.31,29.75,29.75,0,0,0,3.77.19,7.23,7.23,0,0,0,2.65-.32c.73-.27,1.52.21,2.3.11a5.35,5.35,0,0,0,1.44-.1c.26-.1.41,0,.44.28-2.57,1.39-5.14,2.79-7.72,4.17s-4.87,2.59-7.31,3.88l-3.34,1.77c-.41.22-.59.24-.71-.35A56.66,56.66,0,0,0,181.63,91.39Z"/><path class="cls-3" d="M185.66,115.11a27.47,27.47,0,0,0,.14-3.51,30.3,30.3,0,0,0-.23-4.51l4.23,1.4c2.54.85,5.08,1.72,7.62,2.59,2.21.75,4.42,1.48,6.62,2.27.65.24,1.4.25,1.93.77-.21.54-.69.51-1.13.5a17.11,17.11,0,0,0-3.35-.05,11.81,11.81,0,0,1-5.06-.27,1.53,1.53,0,0,0-1.43.17,1.92,1.92,0,0,1-1.21.32c-1.76.08-3.51-.16-5.27,0A13.91,13.91,0,0,1,185.66,115.11Z"/><path class="cls-3" d="M87.25,111.24c.1-1.88.25-3.76.52-5.62a62.33,62.33,0,0,1,1.41-6.48h1a16.78,16.78,0,0,0,2.93-.07c.81-.16,1.61-.33,2.43-.42-.13.43-.25.86-.38,1.29a43.36,43.36,0,0,0-1.36,7.15,48.86,48.86,0,0,0-.2,5.28,6.84,6.84,0,0,1-2.61-.28,1.47,1.47,0,0,0-1.25.11c-.16.09-.36.28-.57,0a1.66,1.66,0,0,1,1.2-.68c.26,0,.66-.12.6-.5a.76.76,0,0,0-.62-.57c-.33-.07-.55,0-.62.41a.58.58,0,0,1-.78.5A6.46,6.46,0,0,0,87.25,111.24Z"/><path class="cls-3" d="M159.35,69.92a24.82,24.82,0,0,1,4.11,2.61c1,.72,1.89,1.49,2.84,2.24a49,49,0,0,1-5,.5c-.2,0-.43.06-.45.25-.07.65-.53.53-1,.55-.25,0-.54-.09-.74.18a55.88,55.88,0,0,0-6.68-3.62,47.92,47.92,0,0,0-8.67-2.72,14.72,14.72,0,0,1-2.55-.49A1.09,1.09,0,0,1,142.6,69a9.69,9.69,0,0,0,4,.42c1,0,2.09.15,3.11.09a9.16,9.16,0,0,1,3.69.15,1.6,1.6,0,0,0,1,.06,4.65,4.65,0,0,1,3.34.23C158.22,70.16,158.84,70.53,159.35,69.92Z"/><path class="cls-3" d="M175.3,64.28a1.54,1.54,0,0,0,.61.16,29.25,29.25,0,0,1,4.19.11c1,0,2.07.23,2.84-.17,1.19-.61,1.56-.31,2.24.69.44.64,1.58.79,2.41,1.16a8.09,8.09,0,0,1-1.77,2.26,9.34,9.34,0,0,1-2.24-.13.33.33,0,0,0-.42.14c-.24.56-.73.44-1.17.47-1.56.1-3.09-.26-4.64-.16a14,14,0,0,1-4-.44c-.39-.09-.79-.31-1.24-.08a7.12,7.12,0,0,1-3.24.35.33.33,0,0,1-.37-.33A74.52,74.52,0,0,1,175.3,64.28Z"/><path class="cls-3" d="M87.25,111.24a6.46,6.46,0,0,1,1.75.12.58.58,0,0,0,.78-.5c.07-.41.29-.48.62-.41A.76.76,0,0,1,91,111c.06.38-.34.49-.6.5a1.66,1.66,0,0,0-1.2.68c.21.28.41.09.57,0a1.47,1.47,0,0,1,1.25-.11,6.84,6.84,0,0,0,2.61.28c.06.79.11,1.58.19,2.37.12,1.1.24,2.19.42,3.28s.45,2.36.68,3.54c-1.78.27-3.58,0-5.37.26a3.75,3.75,0,0,1-.87-.1,19.4,19.4,0,0,1-.74-3.38A45.67,45.67,0,0,1,87.25,111.24Z"/><path class="cls-3" d="M134,57.67a29.59,29.59,0,0,1,.87,3.69,50.9,50.9,0,0,0-15.41,2.74c.25-1.58.46-3.12.75-4.64.08-.43-.11-.93.25-1.3l4-.16c1.81-.07,3.62,0,5.44-.06.69,0,1.34-.39,2-.21A4,4,0,0,0,134,57.67Z"/><path class="cls-3" d="M191.91,149c-3.09-1-6-2.42-9.08-3.6.13-.27.37-.29.62-.28.87,0,1.74.09,2.61.11a40.73,40.73,0,0,0,4.42,0,2.49,2.49,0,0,1,1.63.35.65.65,0,0,0,.74,0,4.18,4.18,0,0,1,2.89-.22,7.61,7.61,0,0,0,2.77-.28c.53-.1.2-.74.54-1,.49.13.74.57,1.07.89,1.54,1.46,3,2.95,4.58,4.44-1.62.18-3.22-.27-4.84-.21-1,0-2-.19-3-.13a5.18,5.18,0,0,1-2.15-.07A7.76,7.76,0,0,0,191.91,149Z"/><path class="cls-3" d="M182.43,73c-.23.79-1,1.22-1.34,1.93a2.52,2.52,0,0,1-2.16-.59.83.83,0,0,0-.75-.22c-.92.15-1.91-.43-2.77.3-.06.06-.21,0-.31,0-1.82-.11-3.63.21-5.45.17-1.6-1.42-3.26-2.75-5.07-4.07.92-.3,1.5-1,2.34-1.23,0,.89.83.78,1.3,1.09a.73.73,0,0,0,1.15-.27c.24-.39.57-.54.78,0,.09.28.29.34.53.43a5.53,5.53,0,0,0,2.53.48c1.82-.14,3.67.27,5.47-.07a21,21,0,0,1,4-.28c.23,0,.62-.15.62.28s-.34.35-.61.36c-.81,0-1.61,0-2.42,0-.52,0-1.17.73-1,1.23s.59.37,1,.38a3,3,0,0,0,1.11-.1A1.27,1.27,0,0,1,182.43,73Z"/><path class="cls-3" d="M213.71,116.58c-.3.68-.9.5-1.39.43a6.27,6.27,0,0,0-3,.29.69.69,0,0,1-.31.06c-2-.09-4,.38-6-.25a.75.75,0,0,0-.7,0c-.68.5-1.47.3-2.2.4a37.14,37.14,0,0,1-6.32.2c-1.57,0-3.13.32-4.71,0a6.48,6.48,0,0,0-2.18.15c-.5.07-.91-.35-1.4-.19a4.23,4.23,0,0,1,.16-1.77c.84.11,1.67-.32,2.47-.14,1.79.41,3.54-.09,5.31-.12a53.82,53.82,0,0,0,6.47-.23c.45-.06.86.12,1.34.08a25.46,25.46,0,0,1,3.81-.1,6.34,6.34,0,0,0,3.49-.48,40.32,40.32,0,0,1,4.46,1.51A4.56,4.56,0,0,0,213.71,116.58Z"/><path class="cls-3" d="M159.35,69.92c-.51.61-1.13.24-1.62.06a4.65,4.65,0,0,0-3.34-.23,1.6,1.6,0,0,1-1-.06,9.16,9.16,0,0,0-3.69-.15c-1,.06-2.07-.09-3.11-.09a9.69,9.69,0,0,1-4-.42,1.09,1.09,0,0,0-1.33.39c-1.36.06-2.69-.26-4-.3a66.81,66.81,0,0,0-6.93.3c-.06-.31-.57-.57-.21-.91a1.56,1.56,0,0,1,1.63-.41c.57.23.83.23,1.21-.33s1.06-.68,1.19-1.43c0-.19.35-.07.36.16,0,.82.6.87,1.18.85a25.92,25.92,0,0,0,3.05-.12,16,16,0,0,1,2.48.12,19.23,19.23,0,0,0,2.94,0,11.06,11.06,0,0,1,2.86.27c1.34.16,2.69,0,4,.15,1.15.16,2.35,0,3.53.2.24,0,.54.1.74-.17A16.51,16.51,0,0,1,159.35,69.92Z"/><path class="cls-3" d="M182.43,73a1.27,1.27,0,0,0-1.09-.11,3,3,0,0,1-1.11.1c-.37,0-.84,0-1-.38s.51-1.22,1-1.23c.81,0,1.61,0,2.42,0,.27,0,.6,0,.61-.36s-.39-.28-.62-.28a21,21,0,0,0-4,.28c-1.8.34-3.65-.07-5.47.07a5.53,5.53,0,0,1-2.53-.48c-.24-.09-.44-.15-.53-.43-.21-.59-.54-.44-.78,0a.73.73,0,0,1-1.15.27c-.47-.31-1.32-.2-1.3-1.09a7.5,7.5,0,0,1,1.61-1,.33.33,0,0,0,.37.33,7.12,7.12,0,0,0,3.24-.35c.45-.23.85,0,1.24.08a14,14,0,0,0,4,.44c1.55-.1,3.08.26,4.64.16.44,0,.93.09,1.17-.47a.33.33,0,0,1,.42-.14,9.34,9.34,0,0,0,2.24.13A27.08,27.08,0,0,1,182.43,73Z"/><path class="cls-3" d="M169.65,74.62c1.82,0,3.63-.28,5.45-.17.1,0,.25,0,.31,0,.86-.73,1.85-.15,2.77-.3a.83.83,0,0,1,.75.22,2.52,2.52,0,0,0,2.16.59c-1.6,2.15-3.22,4.28-4.8,6.45-.28.39-.42.21-.57,0A59,59,0,0,0,169.65,74.62Z"/><path class="cls-3" d="M185.34,118.66c2.88-.66,5.81-.14,8.71-.32.22,0,.57,0,.53.23-.15.72.47.55.74.81a3.93,3.93,0,0,0,2.46,1.11c.07,0,.18.13.2.21s-.13.21-.26.24a12,12,0,0,1-2.09.49c-1.43.07-2.85.29-4.27.47a.63.63,0,0,0-.56.6l-1,0c-.73-.51-1.14-.48-1.62.12-1.08.06-2.15.13-3.23.18-.23,0-.58,0-.45-.34C185,121.26,185,119.92,185.34,118.66Z"/><path class="cls-3" d="M199.05,144.14c-.34.24,0,.88-.54,1a7.61,7.61,0,0,1-2.77.28,4.18,4.18,0,0,0-2.89.22.65.65,0,0,1-.74,0,2.49,2.49,0,0,0-1.63-.35,40.73,40.73,0,0,1-4.42,0c-.87,0-1.74-.07-2.61-.11-.25,0-.49,0-.62.28-1.08-.53-2.28-.78-3.33-1.39.35-1,1.38-.86,2-.76,1.59.3,3.15-.06,4.72,0,1.22.07,2.44.07,3.66.09a10.62,10.62,0,0,0,1.87,0,6.79,6.79,0,0,1,2.21-.07c1.25.19,2.53-.18,3.81,0,.1,0,.23-.11.34-.17C198.34,143.54,199,143.57,199.05,144.14Z"/><path class="cls-3" d="M191.91,149a7.76,7.76,0,0,1,2.8.06,5.18,5.18,0,0,0,2.15.07c1-.06,2,.17,3,.13,1.62-.06,3.22.39,4.84.21.88.81,1.76,1.62,2.64,2.45.06.06.07.19.1.29-.47.11-.93.24-1.4.31a.84.84,0,0,1-1-.85c0-.17.2-.37,0-.5s-.5,0-.65.16a2.79,2.79,0,0,1-1.67.6,4.74,4.74,0,0,1-2.79-.17,1.09,1.09,0,0,0-.92.14c-1.43-.56-2.89-1.07-4.29-1.69A14.27,14.27,0,0,1,191.91,149Z"/><path class="cls-3" d="M89.49,92.05c-.64,1.82-1.31,3.62-1.91,5.44-.15.46-.26.36-.5.13a60.63,60.63,0,0,0-4.91-4c-.49-.39-.94-.84-1.42-1.26,1,0,2-.27,3.11-.21a16.48,16.48,0,0,0,4.9-.23C89,91.86,89.28,91.79,89.49,92.05Z"/><path class="cls-3" d="M199,151.9a1.09,1.09,0,0,1,.92-.14,4.74,4.74,0,0,0,2.79.17,2.79,2.79,0,0,0,1.67-.6c.15-.15.41-.33.65-.16s0,.33,0,.5a.84.84,0,0,0,1,.85c.47-.07.93-.2,1.4-.31.29,0,.41.21.58.37l4.66,4.45c.09.09.25.11.17.28s-.31.12-.47.06c-1.52-.6-3-1.19-4.55-1.8L202,153.18C201,152.77,200,152.33,199,151.9Z"/><path class="cls-3" d="M134,57.67a4,4,0,0,1-2.05.06c-.68-.18-1.33.18-2,.21-1.82.08-3.63,0-5.44.06l-4,.16c-.14-.56.2-1.07.16-1.61a4.9,4.9,0,0,0,2-.26,1.62,1.62,0,0,1,1.33,0,2.47,2.47,0,0,0,2.64-.07,1.25,1.25,0,0,1,.78-.13c1,.21,2-.06,2.92.07,1.17.18,2.25-.26,3.37-.08A5,5,0,0,1,134,57.67Z"/><path class="cls-3" d="M208.55,114.93a6.34,6.34,0,0,1-3.49.48,25.46,25.46,0,0,0-3.81.1c-.48,0-.89-.14-1.34-.08a53.82,53.82,0,0,1-6.47.23c-1.77,0-3.52.53-5.31.12-.8-.18-1.63.25-2.47.14v-.81a13.91,13.91,0,0,0,2.86-.36c1.76-.12,3.51.12,5.27,0a1.92,1.92,0,0,0,1.21-.32,1.53,1.53,0,0,1,1.43-.17,11.81,11.81,0,0,0,5.06.27,17.11,17.11,0,0,1,3.35.05c.44,0,.92,0,1.13-.5A7.07,7.07,0,0,1,208.55,114.93Z"/><path class="cls-3" d="M121.93,178.36c-.42,0-.58.3-.7.66a.54.54,0,0,1-.6.42c-.3-.05-.32-.31-.34-.56s0-.53-.3-.6-.29.24-.37.43a.37.37,0,0,1-.37.26c-.21,0-.2-.2-.25-.35-.19-.53-.78-.87-.71-1.56,0-.23-.4-.27-.66-.34s-.61-.23-.45-.6a.48.48,0,0,1,.73-.25,1.86,1.86,0,0,0,.52.2c.29,0,.67.14.8-.2s-.21-.49-.49-.59-.41-.19-.33-.45a.39.39,0,0,1,.51-.28,3.79,3.79,0,0,0,2.42-.24,1.79,1.79,0,0,1,1.82.22,1.21,1.21,0,0,0,.83.27Zm-2.51-1.62c-.28,0-.62,0-.69.39s.24.3.39.22.73,0,.8-.37S119.63,176.77,119.42,176.74Z"/><path class="cls-3" d="M89.94,97a11,11,0,0,1,1-2.77,29.87,29.87,0,0,1,6.27-.12c-.38.92-.75,1.83-1.13,2.74C94.06,97,92,97.07,89.94,97Z"/><path class="cls-3" d="M89.49,92.05c-.21-.26-.48-.19-.73-.12a16.48,16.48,0,0,1-4.9.23c-1.07-.06-2.07.21-3.11.21a19.44,19.44,0,0,1-1.93-1.45c.45-.44,1.07-.3,1.57-.3,3.31,0,6.6-.5,9.92-.35Z"/><path class="cls-3" d="M196.46,141.56a4.65,4.65,0,0,1-2.53.12,18.56,18.56,0,0,0-4.94.16,19.36,19.36,0,0,0-2.63.17.91.91,0,0,1-.82-.43c.18-.27.49-.22.72-.29.43-.14.73-.3.67-.82a.56.56,0,0,1,.7-.66,40.71,40.71,0,0,0,4.42-.06c.71,0,1.5.25,2.15-.29A23.7,23.7,0,0,1,196.46,141.56Z"/><path class="cls-3" d="M173.39,82.19a18.41,18.41,0,0,1,1.89,2.43,22.05,22.05,0,0,0-4.94,0,9.27,9.27,0,0,0-2,0,18.12,18.12,0,0,1-2.11-2.43Z"/><path class="cls-3" d="M159.17,76.25c.2-.27.49-.17.74-.18.42,0,.88.1,1-.55,0-.19.25-.26.45-.25a49,49,0,0,0,5-.5,16.86,16.86,0,0,1,2.58,2.42,2.76,2.76,0,0,1-1,0,4.35,4.35,0,0,0-2.45,0,7.48,7.48,0,0,1-2.67.19,2.93,2.93,0,0,0-2,0A6.6,6.6,0,0,1,159.17,76.25Z"/><path class="cls-3" d="M193.08,138.33c-1,.15-1.93.1-2.9.28s-2.11-.12-3.16.06-2.25,0-3.37.23c-.46.09-.73-.36-.85-.7s-.42-.71.14-1a2.4,2.4,0,0,1,1.42-.45,46.14,46.14,0,0,0,5.26.34,1.39,1.39,0,0,0,1.35-.67A15.51,15.51,0,0,1,193.08,138.33Z"/><path class="cls-3" d="M170.32,78.63a11.05,11.05,0,0,1,1.94,2.1.46.46,0,0,1-.42.17c-2.19,0-4.36.4-6.55.33A17,17,0,0,1,163,79.15c.12-.06.23-.17.34-.17,1.15,0,2.3,0,3.44,0A15.83,15.83,0,0,0,170.32,78.63Z"/><path class="cls-3" d="M114.67,169.48c1.17-.23,2.36,0,3.53-.56a5.77,5.77,0,0,1,2.43-.14c.67,0,1.33.22,1.84-.42a.44.44,0,0,1,.59-.08c1.25.77,2.69.45,4,.72,0,.3-.26.42-.36.64a4.45,4.45,0,0,0-1.67.18,10.06,10.06,0,0,1-3.79.06,12.73,12.73,0,0,0-3.48.1,15.25,15.25,0,0,0-2.94.61c.44.25.86.51.7,1.12,0,.11.13.41.37.19s.39-.2.55,0,.08.56-.06.82-.3.36-.53.25c-.48-.24-1.23-.25-1.07-1.12a.35.35,0,0,0-.34-.45Z"/><path class="cls-3" d="M93.86,83.82c-2.14.44-4.27-.07-6.4,0-1.59,0-3.17.1-4.78,0a12.7,12.7,0,0,0-2.81.09c-.3,0-.6.07-.62-.26s.34-.28.57-.28a5.56,5.56,0,0,0,2.68-.68c.26-.15.46,0,.69,0h6.6c.12,0,.23-.11.35-.17a11.74,11.74,0,0,1,3.86,1,.66.66,0,0,0,0,.14Z"/><path class="cls-3" d="M79,131.56a11,11,0,0,1,2.83.35,8.34,8.34,0,0,0,2.54,0H86.2c.48,0,.84.09.52.69a.67.67,0,0,0-.08.3c0,.25.26.57-.07.72a1,1,0,0,1-1,0,1.51,1.51,0,0,0-1.06-.23H76.23A20.42,20.42,0,0,1,79,131.56Z"/><path class="cls-3" d="M180.13,88.17c1.74-.11,3.48-.35,5.21-.29s3.48.06,5.22.16a1.63,1.63,0,0,0,1-.16,1.07,1.07,0,0,1,.93-.15c.14,0,.35.08.33.28s-.18.18-.28.25-.18,0-.22.08c-1.1,1.43-2.61.38-3.91.63a13.18,13.18,0,0,0-2.14.19c-.73.27-1.47-.15-2.21,0-.15,0-.37-.12-.46,0-.87.64-1.86.31-2.8.4A4.35,4.35,0,0,1,180.13,88.17Z"/><path class="cls-3" d="M94,88.16a7.4,7.4,0,0,1,3.56.09,1.89,1.89,0,0,0,1.4-.13,1.89,1.89,0,0,1,1.7-.11L99.3,90.1c-2.18.38-4.39-.26-6.57.16A12.38,12.38,0,0,1,94,88.16Z"/><path class="cls-3" d="M170.32,78.63a15.83,15.83,0,0,1-3.5.38c-1.14,0-2.29,0-3.44,0-.11,0-.22.11-.34.17a14.46,14.46,0,0,1-2.26-1.79,2.93,2.93,0,0,1,2,0,7.48,7.48,0,0,0,2.67-.19,4.35,4.35,0,0,1,2.45,0,2.76,2.76,0,0,0,1,0A10.88,10.88,0,0,1,170.32,78.63Z"/><path class="cls-3" d="M92.73,90.26c2.18-.42,4.39.22,6.57-.16L98.21,92a6.52,6.52,0,0,1-1.09.17c-1.75,0-3.49,0-5.24,0A8.1,8.1,0,0,1,92.73,90.26Z"/><path class="cls-3" d="M177,140c1.81,0,3.62.09,5.44-.08.35,0,1.16-.13.9.79-.1.36.26.43.5.52s.75.2,1.14.3c-.15.34-.39.23-.58.23h-4a1.14,1.14,0,0,1-.7-.12.77.77,0,0,0-1.28.4c-.15.36-.42.36-.72.36s-.41-.26-.4-.55c0-.66-.62-.64-1-.91Z"/><path class="cls-3" d="M89.94,97c2.06,0,4.12,0,6.18-.15l-.53,1.77c-.82.09-1.62.26-2.43.42a16.78,16.78,0,0,1-2.93.07h-1Z"/><path class="cls-3" d="M91.88,92.19c1.75,0,3.49,0,5.24,0A6.52,6.52,0,0,0,98.21,92l-1,2.1a29.87,29.87,0,0,0-6.27.12A6.36,6.36,0,0,1,91.88,92.19Z"/><path class="cls-3" d="M141.13,172.54a4.84,4.84,0,0,1,2.66-.64c.1,0,.25,0,.31,0,1,.89,2.05.12,3.07.15a6.75,6.75,0,0,1,2.59.84c.18.08.31.28.55.29s.43,0,.44.23-.25.34-.45.38a2.07,2.07,0,0,1-1.1-.09,5.28,5.28,0,0,0-3.59-.3,1.74,1.74,0,0,1-1.25-.11,2.49,2.49,0,0,0-2.15,0,3.5,3.5,0,0,1-.8.09A1.5,1.5,0,0,1,141.13,172.54Z"/><path class="cls-3" d="M114.31,68.64a1.33,1.33,0,0,0,1.24,0,6.22,6.22,0,0,1,4-.16.58.58,0,0,0,.5-.06c.22-.15.47-.26.7-.39.39-.22.86-.41,1.21-.13a1.85,1.85,0,0,1,.49,1.39c0,.41-.51.47-.88.36a15.45,15.45,0,0,0-4.55-.21,22,22,0,0,0-3.44,0,.44.44,0,0,1-.43-.17A4.17,4.17,0,0,1,114.31,68.64Z"/><path class="cls-3" d="M168.37,84.63a9.27,9.27,0,0,1,2,0,22.05,22.05,0,0,1,4.94,0,3.5,3.5,0,0,1,.69,1.12l-5.89.17c-.21,0-.43,0-.58.17A5,5,0,0,1,168.37,84.63Z"/><path class="cls-3" d="M165.29,81.23c2.19.07,4.36-.32,6.55-.33a.46.46,0,0,0,.42-.17,4.48,4.48,0,0,1,1.13,1.46h-7.13Z"/><path class="cls-3" d="M130.92,43.8c-.9.41-1.84-.07-2.75.14a11.31,11.31,0,0,0-1.25.22c-.37.13-.82.05-.71-.58a.9.9,0,0,0,0-.46c-.29-.73.23-.89.71-.92,1.17-.05,2.34,0,3.5,0A10,10,0,0,1,130.92,43.8Z"/><path class="cls-3" d="M69.47,83.34a2.6,2.6,0,0,1,1.78-.09,8,8,0,0,0,2.76,0,11.66,11.66,0,0,1,4.36.24c.1,0,.24,0,.22.17a.37.37,0,0,1-.18.24,1.44,1.44,0,0,1-.47.06c-1.84-.08-3.68.11-5.53-.12-.68-.08-1.42.16-2.14.13C70,83.81,69.63,83.68,69.47,83.34Z"/><path class="cls-3" d="M126.93,26.85a3.55,3.55,0,0,0-1.6-.31l.51-3.85h.2Z"/><path class="cls-3" d="M188.22,122.67c.48-.6.89-.63,1.62-.12A5.52,5.52,0,0,1,188.22,122.67Z"/><path class="cls-3" d="M180.12,129.47c-.33,0-.67.08-1.05-.12.33-.5.83-.33,1.26-.36Z"/><path class="cls-3" d="M94,83.66a.66.66,0,0,1,0-.14l.12.06Z"/><path class="cls-3" d="M172.71,131.24l.37-.8c1.14.14,2.27-.15,3.42-.06.56,0,.58.16.6.59,0,.68-.48.88-.94,1s-.6-.27-.71-.67c-.15-.57-.59-.45-1-.29A2.29,2.29,0,0,1,172.71,131.24Z"/><path class="cls-3" d="M128,69.75c-.28.26-.64.16-1,.2-.07-.45-.42-.38-.68-.29a7,7,0,0,0-1.47.35c-.35.21-.66-.08-.91-.32s-.06-.5.07-.77a1.57,1.57,0,0,1,1.51-1.1c.56,0,1,.05,1.06.75a.63.63,0,0,0,.75.56C127.84,69.1,128.07,69.3,128,69.75Z"/><path class="cls-3" d="M120.15,180.15c0,.36,0,.76-.34.7s-.79-.24-.79-.74a.55.55,0,0,1,.6-.59A.53.53,0,0,1,120.15,180.15Z"/><path class="cls-3" d="M202.66,120.7a7.84,7.84,0,0,1-4,.21c-.14,0-.25-.09-.24-.26s.15-.2.25-.28A3.67,3.67,0,0,1,202.66,120.7Z"/><path class="cls-3" d="M119.42,176.74c.21,0,.54-.05.5.24s-.53.24-.8.37-.43,0-.39-.22S119.14,176.77,119.42,176.74Z"/><path class="cls-4" d="M137.51,163.7c-28.17.22-51.73-23.18-51.37-52A51.37,51.37,0,0,1,137.92,61a49.62,49.62,0,0,1,36,15.15,49.74,49.74,0,0,1,15,37.2A51.26,51.26,0,0,1,137.51,163.7Z"/></g></g></svg>