<svg xmlns="http://www.w3.org/2000/svg" viewBox="0 0 401.34 401.32"><g id="Ebene_2" data-name="Ebene 2"><g id="Ebene_1-2" data-name="Ebene 1"><path d="M351.18,401.32H10.31C2.7,398.21-.22,392.58,0,384.39c.39-13.57.1-27.16.11-40.74,0-18.29,11-29.28,29.21-29.3,7.93,0,15.86,0,24,0V267.49H22.69C8,267.47.12,259.62.12,245.07q0-34.09,0-68.18c0-22.52,13.88-36.46,36.3-36.47H147.11V110.7c-6,2.6-11.51,5-17.09,7.47-10.88,4.69-20.87,1.27-26.57-9.17Q96.7,96.64,90.13,84.17C84.07,72.72,87,61.71,97.91,54.7c16.8-10.79,33.55-21.65,50.46-32.25,11.38-7.14,23-13.93,34.53-20.81,3.94-2.34,7.78-2.29,9.39.88,2.54,5,7.13,5.75,11.57,6.86A147.26,147.26,0,0,0,251.68,13c10.46-.84,20.81-3.19,31.15-5.18a9.17,9.17,0,0,0,5.23-3.55c3-4.36,6-5.54,10.5-2.73,29,18,58.07,36.06,86.94,54.37a20.12,20.12,0,0,1,7,26.3q-7.29,14.51-15.38,28.6c-5.06,8.79-15.15,11.77-24.45,7.74-3.71-1.61-7.41-3.25-11.12-4.84-2.18-.94-4.4-1.8-7.05-2.89v29.52c8.94.69,15.92,4,21.17,10.65s5.84,14.55,5.61,23c4.9,0,9.43-.08,14,0a26.5,26.5,0,0,1,24.59,18c.46,1.32,1,2.63,1.48,3.94v76c-.16.2-.4.37-.47.6-4.56,15.2-13.26,21.66-29.23,21.68-3.35,0-6.71,0-10.37,0v5.16c0,28.16-.17,56.32.11,84.48C361.46,392.13,358.93,398.06,351.18,401.32ZM181.68,17.93c-6.08,3.65-11.82,7.26-17.73,10.56-2.47,1.38-3.36,3-3.35,5.84q.12,105.19.07,210.39c0,7.53,1.88,9.39,9.52,9.39H310.81c8.62,0,10.33-1.7,10.33-10.27q0-104.42,0-208.82a13.89,13.89,0,0,0,0-2.74A3.81,3.81,0,0,0,320,30c-6.63-4.09-13.32-8.06-20.08-12.12-7.78,27.25-32.7,41.86-58.07,42.36C219.85,60.66,191.09,49,181.68,17.93ZM221,314.35H324.48a31.86,31.86,0,0,1,3.91.08,6.78,6.78,0,0,1,6.07,6.59,6.7,6.7,0,0,1-6.41,6.64c-1.3.1-2.61,0-3.92,0H160.66c0,6-.29,11.51.06,17,.85,13.29-8.29,23.48-23.14,23.31-39.69-.46-79.39-.16-119.09-.16h-4.8v19.95h334V234.49H334.51c0,4.48.14,8.65,0,12.81-.44,11.87-8.71,19.94-20.57,20.18-2.17,0-4.34,0-6.49,0-.39,15-1.09,18.14-5.33,23.5a26,26,0,0,1-21,10.35,25.48,25.48,0,0,1-18.75-7.55c-7.27-7.17-9.33-16-7.44-26H221Zm-153.89-.3h140V267.49c-13,0-25.62,0-38.27,0-13.36-.06-21.46-8.16-21.54-21.44,0-3.87,0-7.73,0-11.78-10.38,0-20.16-.11-29.93.06-3.48.06-5.27,2.51-6,5.76-.83,4-1.51,7.95-2.44,11.88a19.75,19.75,0,0,1-18.8,15.46c-6.13.19-12.27.06-18.4.07h-4.6V281c2.44,0,4.65-.17,6.82,0,3.94.4,6.29,3.05,6.24,6.71s-2.47,6.19-6.44,6.48c-2.16.17-4.34,0-6.67,0Zm-40.3-59.94V189.42c0-3-.13-6,.07-9a6.58,6.58,0,0,1,7-6.42c3.61.17,6,2.75,6.27,6.69.07,1.17,0,2.35,0,3.53v69.57H66.92c0-15.2,0-30.09,0-45,.06-13.19,8.43-21.48,21.61-21.49q27.23,0,54.45,0c1.37,0,2.74-.12,3.94-.17V154a12.63,12.63,0,0,0-1.51-.21c-37.22,0-74.43-.11-111.65,0-11.91,0-20.26,8.84-20.29,20.84q-.09,35.46,0,70.92c0,6.24,2.25,8.45,8.49,8.5ZM147.23,327.7H77.44c-16.56,0-33.13,0-49.7,0-6.71,0-12.21,3.34-13.37,9.25-1.11,5.61-.83,11.5-1.17,17.47H137c1.18,0,2.35,0,3.52,0,3.88-.23,6.53-2.43,6.67-6.29C147.41,341.49,147.23,334.86,147.23,327.7ZM361.5,187.39v93.43c4.76,0,9.3.17,13.82,0,7-.34,12.51-5.56,12.57-12.55q.27-34.06,0-68.12a12.85,12.85,0,0,0-11.68-12.65C371.44,187.1,366.61,187.39,361.5,187.39ZM147.3,39.5a11.66,11.66,0,0,0-1.92.71C131.65,49,117.9,57.72,104.23,66.57c-4.12,2.67-4.9,6.32-2.5,10.88,4.47,8.54,9,17,13.63,25.51,2.14,3.93,4.71,4.88,8.76,3.17,6.95-2.95,13.88-5.95,20.72-9.15a4.68,4.68,0,0,0,2.35-3.35C147.34,75.77,147.3,57.9,147.3,39.5Zm187.64-.19a11.9,11.9,0,0,0-.38,1.88c0,17.5-.07,35,.08,52.49A4.63,4.63,0,0,0,337,97c6.72,3.17,13.55,6.1,20.37,9,4.33,1.87,6.73,1,9-3.16q6.81-12.56,13.48-25.17c2.62-5,1.62-8.55-3.18-11.68-5.47-3.57-11-7-16.48-10.55ZM147.12,200.67c-19.61,0-38.79,0-58,0-6.65,0-8.83,2.2-8.84,9q0,20.35,0,40.72c0,1.14.14,2.28.23,3.71,2.75,0,5.22,0,7.69,0,5-.07,7-1.76,8.08-6.69.65-3.06,1.19-6.14,1.8-9.21,2.19-10.94,9.7-17.25,20.82-17.39,6-.08,12,0,18,0h10.17ZM198,21.82C204,37,223.26,47.49,243.49,46.9c17.05-.49,35.92-12.2,40-25.09A184.24,184.24,0,0,1,198,21.82ZM347.87,220.54c0-18.28.17-36-.09-53.79-.11-7.39-5.39-12.17-13-12.67v66.46Zm-66.68,47c-3,0-6,.15-9-.05-2.48-.16-3.49,1-4.08,3.18a13.5,13.5,0,0,0,4.8,14.3,13.35,13.35,0,0,0,21.14-13.1c-.46-3-1.59-4.77-5.06-4.39A70.13,70.13,0,0,1,281.19,267.49Z"/></g></g></svg>