<svg xmlns="http://www.w3.org/2000/svg" viewBox="0 0 569.21 390.25"><g id="Ebene_2" data-name="Ebene 2"><g id="Ebene_1-2" data-name="Ebene 1"><path d="M563.43,187.21c14.41-28.42.75-65.8-28.47-78.69-10.56-4.66-21.67-5.41-32.83-6.14A58.65,58.65,0,0,0,441.25,146c-.85,3.18-1.94,4.26-5.2,3.73-6.45-1.06-11.43,1.35-15.08,6.84a4.61,4.61,0,0,1-3.54,1.7q-17-1.22-33.9-2.85a6.06,6.06,0,0,1-3.79-1.85q-16-19.2-31.74-38.62a4.62,4.62,0,0,1-.47-.69,8.15,8.15,0,0,1-5.24,2.24,8.63,8.63,0,0,1-9.79-1.64,101.1,101.1,0,0,1-20.13,31.56,7.38,7.38,0,0,1-6.76,2.62q-53.51-4.65-107-9.06a47.65,47.65,0,0,0-6.54-.21c-7.31.41-11.29,4.75-9.9,11.95a45.16,45.16,0,0,0,5.41,14.87c7.82,12.76,19.79,20.17,34.11,23.75,13.1,3.28,26.29,6.19,39.7,9.32-.07.17-.12.31-.18.47a7.4,7.4,0,0,1,3.61,1.06l.12.07a7.16,7.16,0,0,1,3.39.89,6.73,6.73,0,0,1,2.27.47,7.14,7.14,0,0,1,.78.15,7,7,0,0,1,3,.5,4.36,4.36,0,0,1,2.72,0c20.73,4.91,41.49,9.67,62.2,14.63a7.22,7.22,0,0,1,4,3c5.86,9.39,11.48,18.92,17.27,28.35,1.1,1.8,1.34,3.08.05,5.09a13.16,13.16,0,0,0-.26,14.38c.94,1.65,1.89,3.28,2.89,5-.85.81-1.5,1.48-2.21,2.1-16.34,14.41-22.82,32.51-20.19,54,1.55,12.68,8.43,23,15.05,33.33a58.17,58.17,0,0,0,84,15.5c5-3.69,9.05-8.57,13.55-12.91l3.9-6.28c1.58-4.48,3.48-8.87,4.69-13.45,4-15.1,2.37-29.74-5.49-43.2-13.24-22.64-26.95-45-40.5-67.47-3-4.9-7.4-7-13.11-6.86a5.62,5.62,0,0,1-4.1-2.11,133.39,133.39,0,0,1-9.47-15.8c-1.29-2.69-.88-6.2-1.31-10,9.53.78,18.2,1.43,26.84,2.3.82.09,1.78,1.47,2.2,2.45,2.33,5.43,6.34,8.42,12.21,8.92,6.67.57,13.34,1.18,20,1.69,4.58.35,7.41-1.64,7.8-5.31.42-4-2-6.5-6.79-6.95-6.26-.59-12.52-1.13-18.79-1.55-2.27-.15-3.1-1-2.88-3.31q1.56-17.15,2.94-34.3c.17-2.11,1-2.91,3.1-2.68,2.58.29,5.17.48,7.76.69,6.78.56,8.55-.85,9.53-7.53,3-20.92,18.2-37.12,39-39.68,14.84-1.82,29.9-1.13,43.37,6.9a46.45,46.45,0,0,1-25.48,86.18c-9.27-.37-18.52-1.41-27.78-2.18-3.1-.26-5.72.4-7.23,3.44a5.86,5.86,0,0,0,4.64,8.58c11.83,1,23.72,2.63,35.54,2.24,17.75-.59,32.11-8.9,43-23,.74-1,1.65-1.79,2.48-2.68l2.17-3.48C562.3,190,562.76,188.54,563.43,187.21Zm-222.23-61,22.71,27.66L326,150.63Zm60.35,115.91c2.19-1.37,3.43-1.33,4.86,1.07,13,21.82,26.44,43.43,39.18,65.42,10,17.3,7.64,37.73-5.25,53.22-11.64,14-31.39,19.49-49.58,13.68-3.49-1.11-6.79-2.83-11.78-5-3.35-3.6-8.28-7.84-11.88-13-6-8.59-12.15-17.34-13.82-28.1-3-19.32,3.21-35,19-46.67,6.56-4.84,7-6.3,2.75-13.39-4.92-8.19-4.92-8.2,3.38-13.24C386.12,251.43,393.89,246.84,401.55,242.08Zm-19.83-19.9L389.46,235l-17,10.3c-4.55-7.56-9-14.93-13.79-22.88C366.83,224,374.24,227.22,381.72,222.18ZM417,190.59c-8.94-.74-17.37-1.46-25.79-2.12-9.32-.73-14.09,3.32-14.94,12.64-.24,2.72-.53,5.44-.68,8.17s-1.53,3.65-4.05,3.26c-1.08-.17-2.15-.38-3.21-.62q-71.82-16.75-143.61-33.54c-10-2.34-18.59-7.29-24.88-15.52-2.33-3-3.79-6.74-6.09-10.94l225,18.87C418.13,177.33,417.59,183.67,417,190.59Z"/><path d="M534.47,177.87c-3.67,5.91-8.74,10.39-15.39,12.24-12,3.34-24,2.67-35-3.31-10.65-5.8-15.56-15.62-14.7-27.73.86-12.29,7.26-21.45,18.77-25.61a43.05,43.05,0,0,1,36.47,3C539.35,144.74,543.43,163.47,534.47,177.87ZM516.89,146c-6.86-2.18-15.53-4.07-24.29-1.16-7.47,2.48-11.82,10.39-11,18.24a17.48,17.48,0,0,0,14.73,15.41,96.58,96.58,0,0,0,13,1,17.34,17.34,0,0,0,16.7-12.7C528.29,159.05,525.27,151.2,516.89,146Z"/><path d="M353.11,182.6a6.13,6.13,0,0,1-6.23,10.56,6.26,6.26,0,0,1-2.31-8.52A6.1,6.1,0,0,1,353.11,182.6Z"/><path d="M388.69,355.67c-13.25-8.32-22-28.75-17.88-42.31,3.59-11.78,11.68-19.09,23.79-21.12,11.95-2,21.84,2.3,29.08,12a89.66,89.66,0,0,1,7.64,12.61,29.91,29.91,0,0,1-42.63,38.83Zm32-17.88c2.15-3.53,2.68-9.33-.24-15.13a85.46,85.46,0,0,0-7-11.54,17.57,17.57,0,0,0-30,17.94A78.38,78.38,0,0,0,390.61,341C397.88,350.91,412.86,350.2,420.68,337.79Z"/><path d="M135.78,0c3.48,1.57,4.92,4.52,6.07,8,7.3,22.06,17.26,42.75,32.58,60.47a75.16,75.16,0,0,0,10.83,10.27c3.87,3,5,6.25,4,11Q178.79,140,168.62,190.41a27.24,27.24,0,0,0-.51,5.18c0,16.84,0,33.68,0,50.52,0,5.19-2.61,8.27-7,8.49-4.71.25-7.92-3-8-8.31-.07-9.86.56-19.75-.1-29.56-1.61-24,4.54-47,9.21-70.15,3.7-18.31,7.55-36.59,11.23-54.91a4.42,4.42,0,0,0-.8-3.56C152.3,69.25,139.75,45.52,130.1,20c-.27-.7-.52-1.4-.82-2.08-.09-.21-.32-.36-.76-.83-9.64,3.12-19.44,6.26-29.23,9.45-3.3,1.08-7.81,1.38-9.5,3.69s-.44,6.62-.37,10.06c.29,13.57-1.26,26.87-5.76,39.74C74.59,106,56.58,122.07,30,128.68l-4.41,1c1.48,5.38,2.9,10.61,4.35,15.83q10.28,37.07,20.61,74.13a16,16,0,0,1-.36,10.2c-12.08,33.93-22.72,68.3-29.95,103.62-2.31,11.31-3.76,22.79-5.66,34.54h105c0-4.18,0-8.37,0-12.55a16.64,16.64,0,0,1,.61-4.78,7.27,7.27,0,0,1,8-4.81,7.11,7.11,0,0,1,6.24,6.88c.18,5,0,9.95,0,15.2h18.76v-4.45c0-15.85,0-31.69,0-47.53,0-5.13,2.57-8.34,6.79-8.82,4.51-.52,8.1,2.94,8.12,8.1.07,13.6,0,27.2,0,40.79,0,6.24,0,12.48,0,18.71,0,5.46-2.91,8.44-8.25,8.44q-75.78,0-151.56,0c-5.63,0-8.37-3.17-8.26-9.18C.35,355,3.93,336.4,8.22,317.93c7.14-30.72,16.51-60.79,26.79-90.59a11.52,11.52,0,0,0,.21-6.4C26.72,190,18.07,159,9.47,128.07c-2.17-7.79,0-11.08,8.13-12.28,32.88-4.85,53-25.67,56-58.9.89-9.86.21-19.89-.15-29.83-.2-5.84.92-8.15,6.59-10Q104,9.25,128,1.46c1.15-.38,2.23-1,3.34-1.46Z"/><path d="M249.59,383.25c-14.09,0-28.18,0-42.27,0-5.15,0-7.88-2.43-8.61-7.44-5.22-36.19-8.72-72.53-8.18-109.14.4-27.47,2.57-54.77,10.37-81.31a99.31,99.31,0,0,1,4.53-12.24c1.83-4.15,5.17-5.54,9.54-4.13q31.62,10.19,63.2,20.53c4.31,1.41,5.78,3.77,5.84,8.46.36,24.37,12.77,42.31,35.42,51.19,5.83,2.29,7.2,4.81,5.88,11Q313,318,300.57,375.92c-1.17,5.48-3.49,7.32-9.09,7.32C277.52,383.27,263.55,383.25,249.59,383.25Zm-18.36-15.17c-.55-4.29-1-8.35-1.6-12.4-.7-5.13,1.94-9.05,6.51-9.6,4.16-.5,7.54,2.47,8.25,7.31s1.38,9.8,2.08,14.76H286.9c.3-1.3.61-2.5.87-3.71q10.62-49.68,21.29-99.35c.59-2.75.25-4.12-2.43-5.52-11.58-6-21.29-14.26-28.15-25.57a67,67,0,0,1-9.15-28.57c-.13-1.26-.88-3.17-1.8-3.51-6.4-2.33-12.92-4.33-19.77-6.55-1.18,5.16-2.12,10-3.42,14.78A7.34,7.34,0,0,1,230,207.61a24.48,24.48,0,0,1,.58-3.68c.91-4.35,1.86-8.7,2.84-13.28l-17.16-5.56c-16.5,61.11-11.05,122-3.65,183Z"/><path d="M333.71,124.18c-1.62,2-2.83,4.82-4.93,5.9q-29.58,15.21-59.46,29.81a9.73,9.73,0,0,1-6.44.37c-17.56-5.17-35.06-10.54-52.55-15.94-4.87-1.5-6.62-4.87-5.49-10.29q4.92-23.79,9.95-47.55c2.53-11.88,5.64-13.18,16.29-7.43,27.51,14.83,54.73,14.94,81.56-1.81,5-3.11,10.64-1.31,11.84,4.18,2.95,13.51,5.57,27.09,8.31,40.64a14.75,14.75,0,0,1,.16,1.49Zm-113,7.11c.52.46.67.7.89.77,13.92,4.29,27.83,8.59,41.78,12.77a5.27,5.27,0,0,0,3.5-.39Q291,132.52,315,120.35a3.71,3.71,0,0,0,1.59-3c-1.34-7.32-2.92-14.6-4.51-22.25-27.93,13.3-55.71,12.91-83.72-.44C225.73,107.25,223.21,119.38,220.73,131.29Z"/><path d="M119.38,199.08c.72-5.28,1.19-10.61,2.24-15.83a7.11,7.11,0,0,1,8.45-5.57,7.51,7.51,0,0,1,6.05,8.2c-.44,6.94-.81,13.89-1.19,20.84-.33,6.21-5.87,10.13-10.71,7.14-1.93-1.18-3.45-3.85-4-6.13-.69-2.7-.16-5.7-.16-8.57Z"/><path d="M120,252c0-3.62-.08-7.24,0-10.85.13-4.39,3.12-7.46,7.18-7.57a7.31,7.31,0,0,1,7.62,7.16c.24,7.6.23,15.22,0,22.82a7.39,7.39,0,0,1-7.8,7.38c-4-.2-6.92-3.27-7-7.71C119.92,259.48,120,255.73,120,252Z"/><path d="M120,308.27c0-3.62-.07-7.24,0-10.85.12-4.44,3-7.51,7-7.71a7.4,7.4,0,0,1,7.79,7.39c.21,7.48.2,15,0,22.45a7.44,7.44,0,0,1-7.67,7.53c-4.18-.12-7.09-3.29-7.19-8C119.93,315.51,120,311.89,120,308.27Z"/><path d="M128.18,150.27c1.43-6.83,2.92-14.79,4.81-22.66.9-3.71,4.8-5.6,8.59-4.84,3.46.69,6.32,4,5.71,7.66-1.35,8-3,15.91-4.81,23.79a7.24,7.24,0,0,1-8.45,5.12C130.36,158.61,128,155.39,128.18,150.27Z"/><path d="M161.08,288.31a7.23,7.23,0,0,1-7.41-7.25,7.46,7.46,0,0,1,7.54-7.6,7.65,7.65,0,0,1,7.33,7.53A7.46,7.46,0,0,1,161.08,288.31Z"/><path d="M224.64,256c.31-4.85.57-9.7.94-14.55.35-4.63,3.42-7.47,7.75-7.32s7.28,3.35,7.13,7.95q-.37,11-1.18,22c-.32,4.39-3.55,7.32-7.52,7.24-4.21-.08-7.22-3.25-7.27-7.87,0-2.48.19-5,.3-7.46Z"/><path d="M224.84,307.29c0-3.24-.07-6.48,0-9.71a7.2,7.2,0,0,1,6.93-7.35c4-.22,7.46,2.3,7.82,6.42q1,11.73,1.34,23.5a7.37,7.37,0,0,1-14.7.55c-.48-4.46-.7-8.94-1-13.41Z"/><ellipse cx="470.9" cy="212.4" rx="5.46" ry="32.39" transform="translate(227.9 668.26) rotate(-86.22)"/><ellipse cx="463.92" cy="208.21" rx="3.89" ry="21.28" transform="translate(238.41 663.98) rotate(-87.85)"/></g></g></svg>